<svg xmlns="http://www.w3.org/2000/svg" xmlns:xlink="http://www.w3.org/1999/xlink" style="margin:auto;background:rgba(NaN, NaN, NaN, 0);display:block;z-index:1;position:relative" width="1366" height="1044" preserveAspectRatio="xMidYMid" viewBox="0 0 1366 1044">
<g transform="translate(683,522) scale(1,1) translate(-683,-522)"><g transform="translate(898.8703493810386,354.55379294200685) scale(100)" opacity="0.4">
  <path d="M2.33586 0 C2.33586 0.6283599999999999 3.023228706594254 1.0198942772780097 2.709048706594254 1.5640699999999996 S1.71210572272199 1.7087340996839187 1.1679300000000001 2.0229140996839186 S0.6283600000000001 3.1281399999999997 1.9154333191424006e-16 3.1281399999999997 S-0.6237542772780096 2.337094099683919 -1.1679299999999995 2.022914099683919 S-2.3948687065942527 2.108245722721991 -2.709048706594253 1.564070000000001 S-2.33586 0.6283600000000003 -2.33586 2.8606034722563363e-16 S-3.0232287065942542 -1.019894277278009 -2.7090487065942543 -1.564069999999999 S-1.7121057227219907 -1.7087340996839178 -1.167930000000001 -2.022914099683918 S-0.6283600000000005 -3.1281399999999997 -5.746299957427202e-16 -3.1281399999999997 S0.6237542772780084 -2.337094099683919 1.1679299999999984 -2.0229140996839194 S2.3948687065942527 -2.108245722721991 2.709048706594253 -1.5640700000000012 S2.33586 -0.6283600000000005 2.33586 -5.721206944512673e-16" fill="#3494de" stroke-width="0">
    <animateTransform attributeName="transform" type="rotate" dur="33.333333333333336s" repeatCount="indefinite" values="0;60"></animateTransform>
  </path>
</g><g transform="translate(942.0444192572463,321.06455153040827) scale(100)" opacity="0.4">
  <path d="M2.8030319999999995 0 C2.8030319999999995 0.7540319999999998 3.627874447913104 1.2238731327336119 3.2508584479131044 1.8768839999999996 S2.0545268672663877 2.0504809196207017 1.401516 2.427496919620702 S0.754032 3.7537679999999995 2.2985199829708805e-16 3.7537679999999995 S-0.7485051327336114 2.804512919620702 -1.401515999999999 2.4274969196207024 S-2.8738424479131033 2.5298948672663886 -3.2508584479131035 1.876884000000001 S-2.8030319999999995 0.7540320000000001 -2.8030319999999995 3.4327241667076033e-16 S-3.6278744479131046 -1.223873132733611 -3.250858447913105 -1.8768839999999987 S-2.0545268672663886 -2.0504809196207017 -1.401516000000001 -2.427496919620702 S-0.7540320000000005 -3.7537679999999995 -6.895559948912641e-16 -3.7537679999999995 S0.74850513273361 -2.8045129196207026 1.401515999999998 -2.4274969196207032 S2.873842447913103 -2.529894867266389 3.250858447913103 -1.8768840000000016 S2.8030319999999995 -0.7540320000000005 2.8030319999999995 -6.865448333415207e-16" fill="#5988e3" stroke-width="0">
    <animateTransform attributeName="transform" type="rotate" dur="16.666666666666668s" repeatCount="indefinite" values="0;60"></animateTransform>
  </path>
</g><g transform="translate(1045.662186960145,240.69037214257156) scale(100)" opacity="0.4">
  <path d="M3.9242447999999994 0 C3.9242447999999994 1.0556447999999998 5.079024227078346 1.713422385827056 4.551201827078346 2.627637599999999 S2.876337614172943 2.870673287468983 1.9621224000000002 3.398495687468983 S1.0556448 5.255275199999999 3.2179279761592325e-16 5.255275199999999 S-1.0479071858270559 3.9263180874689834 -1.9621223999999988 3.3984956874689836 S-4.0233794270783445 3.5418528141729437 -4.551201827078345 2.6276376000000012 S-3.9242447999999994 1.0556448000000003 -3.9242447999999994 4.805813833390645e-16 S-5.079024227078347 -1.7134223858270552 -4.551201827078347 -2.627637599999998 S-2.876337614172944 -2.8706732874689824 -1.9621224000000015 -3.3984956874689827 S-1.0556448000000007 -5.255275199999999 -9.653783928477697e-16 -5.255275199999999 S1.0479071858270537 -3.9263180874689843 1.962122399999997 -3.398495687468985 S4.023379427078344 -3.541852814172944 4.551201827078344 -2.6276376000000017 S3.924244799999999 -1.0556448000000007 3.9242447999999994 -9.61162766678129e-16" fill="#7e79e0" stroke-width="0">
    <animateTransform attributeName="transform" type="rotate" dur="11.11111111111111s" repeatCount="indefinite" values="0;60"></animateTransform>
  </path>
</g><g transform="translate(1263.2594991362316,71.90459542811448) scale(100)" opacity="0.4">
  <path d="M6.278791679999999 0 C6.278791679999999 1.6890316799999998 8.126438763325355 2.7414758173232907 7.2819229233253555 4.204220159999999 S4.60214018267671 4.593077259950373 3.1393958400000006 5.437593099950373 S1.6890316800000003 8.40844032 5.148684761854774e-16 8.40844032 S-1.6766514973232898 6.282108939950374 -3.1393958399999984 5.437593099950374 S-6.437407083325353 5.666964502676711 -7.281922923325354 4.204220160000003 S-6.278791679999999 1.6890316800000005 -6.278791679999999 7.689302133425032e-16 S-8.126438763325355 -2.7414758173232885 -7.281922923325356 -4.2042201599999975 S-4.6021401826767105 -4.5930772599503715 -3.1393958400000024 -5.437593099950372 S-1.6890316800000014 -8.40844032 -1.544605428556432e-15 -8.40844032 S1.6766514973232864 -6.2821089399503744 3.1393958399999957 -5.437593099950376 S6.437407083325352 -5.666964502676712 7.281922923325353 -4.204220160000004 S6.278791679999999 -1.6890316800000014 6.278791679999999 -1.5378604266850063e-15" fill="#9f66d3" stroke-width="0">
    <animateTransform attributeName="transform" type="rotate" dur="8.333333333333334s" repeatCount="indefinite" values="0;60"></animateTransform>
  </path>
</g></g>

</svg>