<svg xmlns="http://www.w3.org/2000/svg" xmlns:xlink="http://www.w3.org/1999/xlink" style="margin:auto;background:rgba(NaN, NaN, NaN, 0);display:block;z-index:1;position:relative" width="1493" height="1063" preserveAspectRatio="xMidYMid" viewBox="0 0 1453 1063">
<g transform="translate(726.5,531.5) scale(1,1) translate(-726.5,-531.5)"><g transform="translate(1300.5476164909392,86.22302552111267) scale(100)" opacity="0.4">
  <path d="M6.865424999999999 0 C6.865424999999999 1.3803499999999995 7.67445207379974 1.3243343309285087 7.202344568960154 2.621439040030337 S6.146492547930923 3.3556006781729275 5.259220670900109 4.4130101252322085 S5.0277056661138495 5.9475416592111126 3.8322875000000005 6.6377166592111125 S2.5515479220293864 6.521428505681291 1.1921685401589857 6.761123767723838 S0.028439900528888673 7.787828145586091 -1.3309394813415123 7.548132883543544 S-2.2372943338861484 6.635807457776779 -3.4327124999999983 5.94563245777678 S-4.984133210587825 5.984103290572489 -5.87140508761864 4.926693843513208 S-5.979281706219506 3.645218351593458 -6.451389211059094 2.34811364249163 S-7.664574999999999 1.3803500000000004 -7.664574999999999 9.386397240574825e-16 S-6.923496715898681 -1.0510089333898003 -6.4513892110590945 -2.3481136424916285 S-6.758676964649456 -3.869284396453925 -5.871405087618641 -4.926693843513206 S-4.628130666113852 -5.255457457776778 -3.4327125000000027 -5.945632457776778 S-2.6903188632119135 -7.308437621500997 -1.3309394813415125 -7.548132883543544 S-0.16721084171141842 -7.000819029766385 1.1921685401589825 -6.761123767723838 S2.636869333886151 -7.3278916592111125 3.8322875000000005 -6.6377166592111125 S4.371948793869294 -5.47041957229149 5.259220670900108 -4.41301012523221 S6.730237064120564 -3.91854374913217 7.202344568960151 -2.6214390400303427 S6.865424999999999 -1.3803500000000013 6.865424999999999 -1.6815441502072434e-15" fill="#9f66d3" stroke-width="0">
    <animateTransform attributeName="transform" type="rotate" dur="10s" repeatCount="indefinite" values="0;40"></animateTransform>
  </path>
</g><g transform="translate(1415.357139789127,-2.8323693746647223) scale(100)" opacity="0.4">
  <path d="M8.23851 0 C8.23851 1.6564199999999996 9.20934248855969 1.5892011971142108 8.642813482752185 3.145726848036405 S7.375791057517109 4.026720813807513 6.3110648050801315 5.29561215027865 S6.03324679933662 7.137049991053336 4.598745000000001 7.965259991053336 S3.061857506435264 7.8257142068175485 1.4306022481907827 8.113348521268605 S0.03412788063466632 9.34539377470331 -1.597127377609815 9.057759460252253 S-2.6847532006633785 7.962968949332136 -4.119254999999998 7.134758949332136 S-5.980959852705391 7.180923948686988 -7.0456861051423685 5.91203261221585 S-7.17513804746341 4.37426202191215 -7.7416670532709135 2.817736370989956 S-9.19749 1.6564200000000007 -9.19749 1.126367668868979e-15 S-8.30819605907842 -1.2612107200677602 -7.741667053270914 -2.8177363709899543 S-8.110412357579348 -4.643141275744711 -7.04568610514237 -5.912032612215848 S-5.553756799336623 -6.306548949332134 -4.119255000000003 -7.134758949332134 S-3.228382635854296 -8.770125145801197 -1.5971273776098152 -9.057759460252253 S-0.20065301005370206 -8.400982835719663 1.4306022481907792 -8.113348521268607 S3.164243200663382 -8.793469991053335 4.598745000000001 -7.965259991053336 S5.246338552643152 -6.56450348674979 6.31106480508013 -5.295612150278653 S8.076284476944677 -4.702252498958605 8.642813482752182 -3.1457268480364116 S8.23851 -1.6564200000000016 8.23851 -2.017852980248692e-15" fill="#8f70db" stroke-width="0">
    <animateTransform attributeName="transform" type="rotate" dur="5s" repeatCount="indefinite" values="0;40"></animateTransform>
  </path>
</g><g transform="translate(1690.8999957047774,-216.56531712453057) scale(100)" opacity="0.4">
  <path d="M11.533913999999998 0 C11.533913999999998 2.3189879999999987 12.893079483983561 2.2248816759598946 12.099938875853056 4.404017587250966 S10.32610748052395 5.637409139330518 8.835490727112182 7.413857010390109 S8.446545519071266 9.991869987474669 6.438243 11.151363987474667 S4.286600509009369 10.955999889544566 2.002843147467096 11.358687929776046 S0.047779032888533024 13.083551284584631 -2.23597832865374 12.680863244353151 S-3.7586544809287292 11.148156529064988 -5.766956999999996 9.988662529064989 S-8.373343793787544 10.05329352816178 -9.863960547199312 8.276845657102188 S-10.045193266448772 6.123966830677009 -10.838333874579277 3.944830919385938 S-12.876485999999996 2.3189880000000005 -12.876485999999996 1.5769147364165701e-15 S-11.631474482709784 -1.7656950080948643 -10.838333874579279 -3.9448309193859354 S-11.354577300611084 -6.500397786042592 -9.863960547199316 -8.276845657102184 S-7.7752595190712706 -8.829168529064985 -5.766957000000004 -9.988662529064985 S-4.519735690196013 -12.278175204121672 -2.2359783286537405 -12.680863244353151 S-0.2809142140751826 -11.761375970007526 2.0028431474670905 -11.358687929776048 S4.4299404809287335 -12.310857987474666 6.438243 -11.151363987474667 S7.3448739737004125 -9.190304881449704 8.83549072711218 -7.413857010390113 S11.306798267722543 -6.583153498542044 12.09993887585305 -4.404017587250975 S11.533913999999998 -2.3189880000000014 11.533913999999998 -2.8249941723481685e-15" fill="#7e79e0" stroke-width="0">
    <animateTransform attributeName="transform" type="rotate" dur="3.3333333333333335s" repeatCount="indefinite" values="0;40"></animateTransform>
  </path>
</g></g>
</svg>