<svg xmlns="http://www.w3.org/2000/svg" xmlns:xlink="http://www.w3.org/1999/xlink" style="margin:auto;background:rgba(NaN, NaN, NaN, 0);display:block;z-index:1;position:relative" width="3000" height="1044" preserveAspectRatio="xMidYMid" viewBox="0 0 3000 1063">
<g transform="translate(1500,531.5) scale(1,1) translate(-1500,-531.5)"><g transform="translate(2685.2325185635355,-387.8605804794646) scale(100)" opacity="0.4">
  <path d="M14.174999999999999 0 C14.174999999999999 2.849999999999999 15.845393132415156 2.7343447988888685 14.870635723937001 5.412468768128707 S12.690624668818149 6.928287704417606 10.858679981211512 9.111514367306693 S10.38067240078565 12.27985201488874 7.912500000000001 13.70485201488874 S5.268165014513531 13.464752592597296 2.4614629184287384 13.959649898948047 S0.05871968450562015 16.079479997768942 -2.747982411579172 15.584582691418191 S-4.619327599214346 13.700910098644417 -7.087499999999996 12.275910098644419 S-10.290708624751188 12.355340586178574 -12.122653312357825 10.172113923289487 S-12.345385491162093 7.526259500881194 -13.32014289964025 4.848135531641356 S-15.825 2.850000000000001 -15.825 1.9380035596506866e-15 S-14.294900308118406 -2.170011562401515 -13.320142899640251 -4.848135531641353 S-13.954597999964465 -7.988887260400396 -12.122653312357828 -10.172113923289483 S-9.555672400785655 -10.850910098644414 -7.087500000000006 -12.275910098644415 S-5.554684507663964 -15.08968538506744 -2.7479824115791724 -15.584582691418191 S-0.3452391776560604 -14.4545472052988 2.461462918428732 -13.959649898948049 S5.444327599214352 -15.12985201488874 7.912500000000001 -13.70485201488874 S9.026735293604872 -11.294741030195784 10.858679981211509 -9.111514367306699 S13.895878315458837 -8.090592737368556 14.870635723936996 -5.4124687681287185 S14.174999999999999 -2.8500000000000028 14.174999999999999 -3.471873675582746e-15" fill="#9f66d3" stroke-width="0">
    <animateTransform attributeName="transform" type="rotate" dur="10s" repeatCount="indefinite" values="0;40"></animateTransform>
  </path>
</g><g transform="translate(2922.279022276243,-571.7326965753575) scale(100)" opacity="0.4">
  <path d="M17.009999999999998 0 C17.009999999999998 3.419999999999999 19.014471758898186 3.2812137586666426 17.8447628687244 6.494962521754449 S15.228749602581779 8.313945245301127 13.030415977453815 10.93381724076803 S12.45680688094278 14.735822417866487 9.495000000000001 16.445822417866488 S6.321798017416237 16.157703111116756 2.953755502114486 16.751579878737658 S0.07046362140674445 19.29537599732273 -3.297578893895006 18.701499229701827 S-5.543193119057216 16.441092118373298 -8.504999999999995 14.7310921183733 S-12.348850349701426 14.826408703414288 -14.54718397482939 12.206536707947384 S-14.81446258939451 9.031511401057433 -15.984171479568298 5.817762637969627 S-18.99 3.4200000000000013 -18.99 2.3256042715808234e-15 S-17.153880369742087 -2.604013874881817 -15.9841714795683 -5.817762637969623 S-16.745517599957356 -9.586664712480474 -14.547183974829393 -12.206536707947379 S-11.466806880942785 -13.021092118373296 -8.505000000000006 -14.731092118373297 S-6.665621409196757 -18.107622462080926 -3.2975788938950066 -18.701499229701827 S-0.41428701318727246 -17.34545664635856 2.9537555021144786 -16.751579878737658 S6.533193119057222 -18.15582241786649 9.495000000000001 -16.445822417866488 S10.832082352325845 -13.553689236234941 13.03041597745381 -10.933817240768038 S16.675053978550604 -9.708711284842266 17.844762868724395 -6.494962521754462 S17.009999999999998 -3.420000000000003 17.009999999999998 -4.166248410699295e-15" fill="#8f70db" stroke-width="0">
    <animateTransform attributeName="transform" type="rotate" dur="5s" repeatCount="indefinite" values="0;40"></animateTransform>
  </path>
</g><g transform="translate(3491.1906311867397,-1013.0257752055004) scale(100)" opacity="0.4">
  <path d="M23.813999999999997 0 C23.813999999999997 4.7879999999999985 26.62026046245746 4.593699262133299 24.98266801621416 9.092947530456227 S21.32024944361449 11.639523343421578 18.24258236843534 15.307344137075244 S17.439529633319893 20.630151385013086 13.293000000000003 23.024151385013084 S8.850517224382731 22.62078435556346 4.13525770296028 23.45221183023272 S0.09864906996944178 27.013526396251823 -4.616610451453009 26.18209892158256 S-7.760470366680102 23.01752896572262 -11.906999999999993 20.62352896572262 S-17.288390489581996 20.75697218478 -20.366057564761146 17.089151391126336 S-20.740247625152314 12.644115961480406 -22.377840071395617 8.144867693157478 S-26.586 4.788000000000002 -26.586 3.255845980213153e-15 S-24.01543251763892 -3.6456194248345444 -22.37784007139562 -8.144867693157472 S-23.443724639940303 -13.421330597472666 -20.366057564761153 -17.089151391126332 S-16.053529633319897 -18.22952896572261 -11.907000000000009 -20.623528965722613 S-9.33186997287546 -25.3506714469133 -4.61661045145301 -26.18209892158256 S-0.5800018184621809 -24.283639304901982 4.13525770296027 -23.45221183023272 S9.146470366680113 -25.418151385013083 13.293000000000003 -23.024151385013084 S15.164915293256186 -18.975164930728916 18.242582368435336 -15.307344137075251 S23.34507556997085 -13.592195798779173 24.982668016214152 -9.092947530456247 S23.813999999999997 -4.788000000000005 23.813999999999997 -5.832747774979013e-15" fill="#7e79e0" stroke-width="0">
    <animateTransform attributeName="transform" type="rotate" dur="3.3333333333333335s" repeatCount="indefinite" values="0;40"></animateTransform>
  </path>
</g></g>
</svg>