<svg id="Layer_1" data-name="Layer 1" xmlns="http://www.w3.org/2000/svg" viewBox="0 0 120 120"><defs><style>.cls-1{fill:#a8d2f0;}.cls-2{fill:#231f20;}</style></defs><path class="cls-1" d="M8.07,117.31s3.39.77,4.52-1.15,3.57-21.31,16.56-30.59S48.15,74,55.86,72.76s27.85,1.13,27.85,1.13l-25.4-6.16s-28,8.92-29.16,10.68S18.42,89.68,18.42,89.68s-7.9,11.29-7.9,13-3.63,15-3.63,15"/><path class="cls-1" d="M41.18,19.65s16.23-6.36,26.47,0,14,16.39,9.53,24.63a36.12,36.12,0,0,1-11.3,12.45L79,53.35l6.79-22.94L76.65,14.35l-26.47-4.2Z"/><path class="cls-2" d="M59.69,63.37A28.67,28.67,0,1,1,85.38,47.55,28.51,28.51,0,0,1,59.69,63.37Zm0-50.79A22.07,22.07,0,1,0,81.78,34.64,22.08,22.08,0,0,0,59.69,12.58Z"/><path class="cls-2" d="M112.5,117.79a3.33,3.33,0,0,1-3.27-2.74c-4.15-23.26-16-32.66-25.93-38.25a48.57,48.57,0,0,0-49.42,1.42C24.8,83.84,14.94,92.61,10.77,115a3.33,3.33,0,0,1-6.54-1.22C8.88,88.85,20.06,79,30.38,72.57A55.15,55.15,0,0,1,86.56,71c16.58,9.36,25.59,22.58,29.21,42.86a3.33,3.33,0,0,1-2.69,3.86A3.79,3.79,0,0,1,112.5,117.79Z"/></svg>