<svg xmlns="http://www.w3.org/2000/svg" xmlns:xlink="http://www.w3.org/1999/xlink" viewBox="0 0 2047.06 468.05"><defs><style>.cls-1{fill:url(#linear-gradient);}.cls-2{fill:url(#linear-gradient-2);}.cls-3{fill:url(#linear-gradient-3);}.cls-4{fill:url(#linear-gradient-4);}.cls-5{fill:url(#linear-gradient-5);}.cls-6{fill:url(#linear-gradient-6);}.cls-7{fill:url(#linear-gradient-7);}.cls-8{fill:url(#linear-gradient-8);}</style><linearGradient id="linear-gradient" x1="186.5" y1="263.62" x2="305.84" y2="203.95" gradientUnits="userSpaceOnUse"><stop offset="0" stop-color="#9f48bb"/><stop offset="0.18" stop-color="#9c60cd"/><stop offset="0.39" stop-color="#9a73db"/><stop offset="0.6" stop-color="#987ee4"/><stop offset="0.82" stop-color="#9882e7"/><stop offset="0.9" stop-color="#9682e7"/><stop offset="0.92" stop-color="#8f83e6"/><stop offset="0.95" stop-color="#8485e4"/><stop offset="0.96" stop-color="#7387e2"/><stop offset="0.98" stop-color="#5d8ade"/><stop offset="0.99" stop-color="#428ddb"/><stop offset="1" stop-color="#2391d6"/><stop offset="1" stop-color="#2291d6"/></linearGradient><linearGradient id="linear-gradient-2" x1="-316.8" y1="1327.11" x2="240.24" y2="1097.55" gradientTransform="matrix(0.78, -0.34, 0.34, 0.78, -147.42, -700.44)" gradientUnits="userSpaceOnUse"><stop offset="0.15" stop-color="#9f48bb"/><stop offset="0.22" stop-color="#9e54c4"/><stop offset="0.44" stop-color="#9a75dd"/><stop offset="0.56" stop-color="#9882e7"/><stop offset="0.73" stop-color="#6389df"/><stop offset="0.91" stop-color="#348fd9"/><stop offset="1" stop-color="#2291d6"/></linearGradient><linearGradient id="linear-gradient-3" x1="68.54" y1="748.72" x2="475.12" y2="748.72" gradientTransform="matrix(0.93, -0.47, 0.45, 0.89, -330.96, -287.08)" gradientUnits="userSpaceOnUse"><stop offset="0" stop-color="#9f48bb"/><stop offset="0.07" stop-color="#9e54c4"/><stop offset="0.27" stop-color="#9a75dd"/><stop offset="0.39" stop-color="#9882e7"/><stop offset="1" stop-color="#2291d6"/></linearGradient><linearGradient id="linear-gradient-4" x1="-329.4" y1="1296.54" x2="227.64" y2="1066.98" gradientTransform="matrix(0.78, -0.34, 0.34, 0.78, -147.42, -700.44)" gradientUnits="userSpaceOnUse"><stop offset="0.1" stop-color="#9f48bb"/><stop offset="0.16" stop-color="#9e54c4"/><stop offset="0.33" stop-color="#9a75dd"/><stop offset="0.43" stop-color="#9882e7"/><stop offset="1" stop-color="#2291d6"/></linearGradient><linearGradient id="linear-gradient-5" x1="68.54" y1="770.92" x2="475.12" y2="770.92" xlink:href="#linear-gradient-3"/><linearGradient id="linear-gradient-6" x1="-288.05" y1="1396.86" x2="268.99" y2="1167.3" gradientTransform="matrix(0.78, -0.34, 0.34, 0.78, -147.42, -700.44)" gradientUnits="userSpaceOnUse"><stop offset="0" stop-color="#9f48bb"/><stop offset="0.08" stop-color="#9e54c4"/><stop offset="0.3" stop-color="#9a75dd"/><stop offset="0.43" stop-color="#9882e7"/><stop offset="1" stop-color="#2291d6"/></linearGradient><linearGradient id="linear-gradient-7" x1="68.54" y1="863.58" x2="475.12" y2="863.58" gradientTransform="matrix(0.93, -0.47, 0.45, 0.89, -330.96, -287.08)" gradientUnits="userSpaceOnUse"><stop offset="0.23" stop-color="#9f48bb"/><stop offset="0.28" stop-color="#9e54c4"/><stop offset="0.42" stop-color="#9a75dd"/><stop offset="0.5" stop-color="#9882e7"/><stop offset="1" stop-color="#2291d6"/></linearGradient><linearGradient id="linear-gradient-8" x1="-260.48" y1="1463.77" x2="296.56" y2="1234.21" gradientTransform="matrix(0.78, -0.34, 0.34, 0.78, -147.42, -700.44)" gradientUnits="userSpaceOnUse"><stop offset="0.06" stop-color="#9f48bb"/><stop offset="0.15" stop-color="#9e54c4"/><stop offset="0.41" stop-color="#9a75dd"/><stop offset="0.56" stop-color="#9882e7"/><stop offset="0.73" stop-color="#6389df"/><stop offset="0.91" stop-color="#348fd9"/><stop offset="1" stop-color="#2291d6"/></linearGradient></defs><g id="object"><path d="M763.67,172V396.35H699.49V378.52a120.21,120.21,0,0,1-30,19.32,82.45,82.45,0,0,1-34.23,7.32,113.46,113.46,0,0,1-46-9.47,115.51,115.51,0,0,1-37.44-26,124.27,124.27,0,0,1-25-38.57A123.61,123.61,0,0,1,527,237a122.31,122.31,0,0,1,25.46-38.56,120.48,120.48,0,0,1,37.45-25.79,110.86,110.86,0,0,1,45.36-9.48,82.89,82.89,0,0,1,34.23,7.28,128,128,0,0,1,30,18.73V172ZM642.14,345.22a56,56,0,0,0,22.9-4.83,62.52,62.52,0,0,0,19-12.95,59.73,59.73,0,0,0,12.84-19.33,63.17,63.17,0,0,0,0-47.87,59.69,59.69,0,0,0-12.84-19.32,62.54,62.54,0,0,0-19-13,56,56,0,0,0-22.9-4.83A57,57,0,0,0,618.82,228a59.94,59.94,0,0,0-18.83,13,62.53,62.53,0,0,0,0,86.52,59.91,59.91,0,0,0,18.83,12.95A57,57,0,0,0,642.14,345.22Z"/><path d="M939.55,163.18a133.6,133.6,0,0,1,20.32,1.55,89,89,0,0,1,19,5.07l-13.26,59.94c-.58-1.76-3.42-3.31-8.56-4.63a61.62,61.62,0,0,0-15.4-2,97.5,97.5,0,0,0-27.39,3.52,86.13,86.13,0,0,0-20.33,8.6,45.31,45.31,0,0,0-12.84,11q-4.49,5.94-4.49,11.24V396.35H812.45V172h64.19v34.82q1.71-6.62,8.77-14.32a97.11,97.11,0,0,1,16.26-14.11,113.91,113.91,0,0,1,19.26-10.8Q931,163.2,939.55,163.18Z"/><path d="M1174.47,396.79q-9.42,3.52-25,5.95t-43.86,2.42a63.25,63.25,0,0,1-26.32-5.51,66.63,66.63,0,0,1-21.18-15,73.61,73.61,0,0,1-14.33-22,68.38,68.38,0,0,1-5.35-27.11L1038,229.3H993.45V172H1038V100.6h64.19V172h53.06l-12.41,57.3h-40.65v92.56a24.42,24.42,0,0,0,7.06,16.53,22,22,0,0,0,16.47,6.83q16.69,0,24.18-3.75t10.91-5.51Z"/><path d="M1428.23,172V396.35H1364V378.52a120.21,120.21,0,0,1-30,19.32,82.45,82.45,0,0,1-34.23,7.32,113.38,113.38,0,0,1-46-9.47,115.55,115.55,0,0,1-37.45-26,124.45,124.45,0,0,1-25-38.57,123.61,123.61,0,0,1,.21-94.1,122.34,122.34,0,0,1,25.47-38.56,120.32,120.32,0,0,1,37.44-25.79,110.86,110.86,0,0,1,45.36-9.48,82.89,82.89,0,0,1,34.23,7.28,128,128,0,0,1,30,18.73V172ZM1306.7,345.22a56,56,0,0,0,22.89-4.83,62.52,62.52,0,0,0,19-12.95,59.73,59.73,0,0,0,12.84-19.33,63.17,63.17,0,0,0,0-47.87,59.69,59.69,0,0,0-12.84-19.32,62.54,62.54,0,0,0-19-13,56,56,0,0,0-22.89-4.83,57,57,0,0,0-23.33,4.83,59.78,59.78,0,0,0-18.82,13,62.49,62.49,0,0,0,0,86.52,59.76,59.76,0,0,0,18.82,12.95A57,57,0,0,0,1306.7,345.22Z"/><path d="M1688.83,396.35h-64.19V373.43a107.66,107.66,0,0,1-28.24,23.14,69.08,69.08,0,0,1-34.24,8.59,82.91,82.91,0,0,1-35.09-7.49,88,88,0,0,1-28.24-20.49,100.26,100.26,0,0,1-19-30.2,96.43,96.43,0,0,1-7.06-37V172h64.18V297.18a49.75,49.75,0,0,0,12.84,33.93,43.83,43.83,0,0,0,13.91,10.36,40,40,0,0,0,33.81,0,46.78,46.78,0,0,0,23.75-26,53.68,53.68,0,0,0,3.42-19.18V172h64.19Z"/><path d="M1877.54,284.39l84.73,112h-74l-47.5-63-47.5,63h-74.46l84.73-112L1718.78,172h74l47.93,63,47.5-63h74Z"/><path class="cls-1" d="M234.25,257c2.4-2.91,4.58-5.58,8.24-8,7.24-4.79,14.63-5.2,19.53-5.41a54.21,54.21,0,0,1,15.76,1.65c21.29,5.29,51.43,16.14,56.24,17.88Q317.19,228.08,300.37,193a51,51,0,0,0-12.71-13.41c-11.21-8.14-22.75-9.07-29.88-9.88-21.08-2.4-50.77,3.26-65.64,25.17a54,54,0,0,0-6.83,14.59c-7.1,21.83-1.33,41.42,1.88,50.12,2,5.36,1.6,3.6,22.25,49.47.63,1.38,1.39,3.09,2,4.41.87-3.27,7.17-26.82,14.35-42.59A60.42,60.42,0,0,1,234.25,257Z"/><path class="cls-2" d="M234.25,257c2.4-2.91,4.58-5.58,8.24-8,7.24-4.79,14.63-5.2,19.53-5.41a54.21,54.21,0,0,1,15.76,1.65c21.29,5.29,51.43,16.14,56.24,17.88Q317.19,228.08,300.37,193a51,51,0,0,0-12.71-13.41c-11.21-8.14-22.75-9.07-29.88-9.88-21.08-2.4-50.77,3.26-65.64,25.17a54,54,0,0,0-6.83,14.59c-7.1,21.83-1.33,41.42,1.88,50.12,2,5.36,1.6,3.6,22.25,49.47.63,1.38,1.39,3.09,2,4.41.87-3.27,7.17-26.82,14.35-42.59A60.42,60.42,0,0,1,234.25,257Z"/><path class="cls-3" d="M118,267.41a145.51,145.51,0,0,1-5.18-32.24c-12.9,15.49-31.48,42.55-36,77.18-3.16,24.21,2.8,34.86,5.65,39.06,5.83,8.6,25.09,18.63,34.82,23,15.52,7,25.89,9.61,53.41,17.7q-21.76-50.24-43.52-100.47A158,158,0,0,1,118,267.41Z"/><path class="cls-4" d="M118,267.41a145.51,145.51,0,0,1-5.18-32.24c-12.9,15.49-31.48,42.55-36,77.18-3.16,24.21,2.8,34.86,5.65,39.06,5.83,8.6,25.09,18.63,34.82,23,15.52,7,25.89,9.61,53.41,17.7q-21.76-50.24-43.52-100.47A158,158,0,0,1,118,267.41Z"/><path class="cls-5" d="M466.31,350.18c-1.17-28.53-8.32-54.12-29.61-115.36-9.31-26.81-18.8-46.69-37.76-86.47,0,0-27.53-52.59-53.65-78.12-2.86-2.8-9.6-8.88-18.11-11.76-3.06-1-12.91-3.92-31.06,1.41-16,4.71-28.53,12.74-35.71,17.35-15.79,10.15-32.71,24.12-52.76,41.47a184.51,184.51,0,0,1,42-9.17c21.68-2.15,40,.62,53.17,3.17,8.29,2.45,21.51,5.29,33.23,16,17.14,15.62,25.57,33.15,30.15,41.48,5.19,9.43,12.65,26.9,16.86,36.8Q412.61,276.5,442.35,346c1.46,3.2,7,12.66,6.71,25.41A25,25,0,0,1,447,380.9c-5.85,13.36-8,13.29,3.57,4l1-.8c6.27-4.83,8.9-7.57,12-14.11C466.39,364,466.68,359,466.31,350.18Z"/><path class="cls-6" d="M466.31,350.18c-1.17-28.53-8.32-54.12-29.61-115.36-9.31-26.81-18.8-46.69-37.76-86.47,0,0-27.53-52.59-53.65-78.12-2.86-2.8-9.6-8.88-18.11-11.76-3.06-1-12.91-3.92-31.06,1.41-16,4.71-28.53,12.74-35.71,17.35-15.79,10.15-32.71,24.12-52.76,41.47a184.51,184.51,0,0,1,42-9.17c21.68-2.15,40,.62,53.17,3.17,8.29,2.45,21.51,5.29,33.23,16,17.14,15.62,25.57,33.15,30.15,41.48,5.19,9.43,12.65,26.9,16.86,36.8Q412.61,276.5,442.35,346c1.46,3.2,7,12.66,6.71,25.41A25,25,0,0,1,447,380.9c-5.85,13.36-8,13.29,3.57,4l1-.8c6.27-4.83,8.9-7.57,12-14.11C466.39,364,466.68,359,466.31,350.18Z"/><path class="cls-7" d="M274.35,291.64c-33.53,7.89-51.93,30.87-56.82,37.42l32.82,77.64a421.19,421.19,0,0,0,60,4.59,422.67,422.67,0,0,0,82.59-7.76l-44.12-99.89C342.78,300,312.73,282.62,274.35,291.64Z"/><path class="cls-8" d="M274.35,291.64c-33.53,7.89-51.93,30.87-56.82,37.42l32.82,77.64a421.19,421.19,0,0,0,60,4.59,422.67,422.67,0,0,0,82.59-7.76l-44.12-99.89C342.78,300,312.73,282.62,274.35,291.64Z"/></g></svg>