<svg xmlns="http://www.w3.org/2000/svg" xmlns:xlink="http://www.w3.org/1999/xlink" style="margin:auto;background:rgba(NaN, NaN, NaN, 0);display:block;z-index:1;position:relative" width="393" height="295" preserveAspectRatio="xMidYMid" viewBox="0 0 393 295">
<g transform="translate(196.5,147.5) scale(1,1) translate(-196.5,-147.5)"><linearGradient id="lg-0.5238815304266733" x1="0" x2="1" y1="0" y2="0">
  <stop stop-color="#ff00ff" offset="0"></stop>
  <stop stop-color="#00ffff" offset="1"></stop>
</linearGradient><path d="M 336 148 C 336 192 278 257 236 270 C 194 283 99 273 73 237 C 47 201 45 91 71 56 C 97 21 189 27 231 41 C 273 55 336 104 336 148" fill="url(#lg-0.5238815304266733)" opacity="0.4">
  <animate attributeName="d" dur="10s" repeatCount="indefinite" keyTimes="0;0.3333333333333333;0.6666666666666666;1" calcmod="spline" keySplines="0.3 0.1 0.7 0.9;0.3 0.1 0.7 0.9;0.3 0.1 0.7 0.9" begin="-5s" values="M 336 148 C 336 192 278 257 236 270 C 194 283 99 273 73 237 C 47 201 45 91 71 56 C 97 21 189 27 231 41 C 273 55 336 104 336 148;M 349 148 C 349 195 284 266 239 280 C 194 294 96 279 68 241 C 40 203 36 89 64 51 C 92 13 190 14 235 29 C 280 44 349 101 349 148;M 348 148 C 348 193 277 251 235 265 C 193 279 95 276 69 240 C 43 204 67 108 93 72 C 119 36 195 9 237 23 C 279 37 348 103 348 148;M 336 148 C 336 192 278 257 236 270 C 194 283 99 273 73 237 C 47 201 45 91 71 56 C 97 21 189 27 231 41 C 273 55 336 104 336 148"></animate>
</path><path d="M 353 148 C 353 193 271 232 228 246 C 185 260 114 262 88 226 C 62 190 46 93 72 57 C 98 21 195 4 238 18 C 281 32 353 103 353 148" fill="url(#lg-0.5238815304266733)" opacity="0.4">
  <animate attributeName="d" dur="10s" repeatCount="indefinite" keyTimes="0;0.3333333333333333;0.6666666666666666;1" calcmod="spline" keySplines="0.3 0.1 0.7 0.9;0.3 0.1 0.7 0.9;0.3 0.1 0.7 0.9" begin="-5s" values="M 353 148 C 353 193 271 232 228 246 C 185 260 114 262 88 226 C 62 190 46 93 72 57 C 98 21 195 4 238 18 C 281 32 353 103 353 148;M 371 148 C 371 194 283 265 239 279 C 195 293 92 280 65 243 C 38 206 61 106 88 69 C 115 32 186 29 230 43 C 274 57 371 102 371 148;M 350 148 C 350 197 281 252 235 267 C 189 282 96 281 67 241 C 38 201 45 99 74 59 C 103 19 195 -4 241 11 C 287 26 350 99 350 148;M 353 148 C 353 193 271 232 228 246 C 185 260 114 262 88 226 C 62 190 46 93 72 57 C 98 21 195 4 238 18 C 281 32 353 103 353 148"></animate>
</path><path d="M 373 148 C 373 194 272 230 228 244 C 184 258 85 285 58 248 C 31 211 41 91 68 54 C 95 17 189 23 233 37 C 277 51 373 102 373 148" fill="url(#lg-0.5238815304266733)" opacity="0.4">
  <animate attributeName="d" dur="10s" repeatCount="indefinite" keyTimes="0;0.3333333333333333;0.6666666666666666;1" calcmod="spline" keySplines="0.3 0.1 0.7 0.9;0.3 0.1 0.7 0.9;0.3 0.1 0.7 0.9" begin="-5s" values="M 373 148 C 373 194 272 230 228 244 C 184 258 85 285 58 248 C 31 211 41 91 68 54 C 95 17 189 23 233 37 C 277 51 373 102 373 148;M 329 148 C 329 190 270 239 231 252 C 192 265 118 256 94 222 C 70 188 73 109 97 75 C 121 41 194 19 234 32 C 274 45 329 106 329 148;M 336 148 C 336 192 279 258 237 272 C 195 286 100 272 74 236 C 48 200 67 108 93 72 C 119 36 190 25 232 39 C 274 53 336 104 336 148;M 373 148 C 373 194 272 230 228 244 C 184 258 85 285 58 248 C 31 211 41 91 68 54 C 95 17 189 23 233 37 C 277 51 373 102 373 148"></animate>
</path><path d="M 336 148 C 336 189 264 221 225 234 C 186 247 119 254 95 221 C 71 188 62 100 86 67 C 110 34 193 26 232 39 C 271 52 336 107 336 148" fill="url(#lg-0.5238815304266733)" opacity="0.4">
  <animate attributeName="d" dur="10s" repeatCount="indefinite" keyTimes="0;0.3333333333333333;0.6666666666666666;1" calcmod="spline" keySplines="0.3 0.1 0.7 0.9;0.3 0.1 0.7 0.9;0.3 0.1 0.7 0.9" begin="-5s" values="M 336 148 C 336 189 264 221 225 234 C 186 247 119 254 95 221 C 71 188 62 100 86 67 C 110 34 193 26 232 39 C 271 52 336 107 336 148;M 328 148 C 328 190 276 255 236 268 C 196 281 111 262 86 228 C 61 194 61 101 85 67 C 109 33 194 20 234 33 C 274 46 328 106 328 148;M 368 148 C 368 196 284 261 238 276 C 192 291 82 290 54 251 C 26 212 47 98 75 59 C 103 20 194 -2 240 13 C 286 28 368 100 368 148;M 336 148 C 336 189 264 221 225 234 C 186 247 119 254 95 221 C 71 188 62 100 86 67 C 110 34 193 26 232 39 C 271 52 336 107 336 148"></animate>
</path></g>

</svg>
