<svg xmlns="http://www.w3.org/2000/svg" xmlns:xlink="http://www.w3.org/1999/xlink" style="margin:auto;background:rgba(NaN, NaN, NaN, 0);display:block;z-index:1;position:relative" width="1366" height="625" preserveAspectRatio="xMidYMid" viewBox="0 0 1366 625">
<g transform="translate(683,312.5) scale(1,1) translate(-683,-312.5)"><path id="path0" d="M 540.7842270132575 521.3673475166825
c 0 34.6143298812431 -8.469463694346716 9.94241390205919 -18.411877596405905 9.94241390205919
S 503.9604718204456 555.9816773979255 503.9604718204456 521.3673475166825
s 8.469463694346716 -9.94241390205919 18.411877596405905 -9.94241390205919
S 540.7842270132575 486.75301763543933 540.7842270132575 521.3673475166825
z" fill="none" stroke="none"></path>
<circle cx="0" cy="0" r="2.135131065014515" fill="#9f66d3">
  <animateMotion begin="-8.100828493757772s" dur="10s" repeatCount="indefinite">
    <mpath xlink:href="#path0"></mpath>
  </animateMotion>
</circle><path id="path1" d="M 610.1769905026231 212.51725362024655
c 0 21.79850551862293 -5.333676882216249 6.261272861732119 -11.59494974394837 6.261272861732119
S 586.9870910147263 234.31575913886948 586.9870910147263 212.51725362024655
s 5.333676882216249 -6.261272861732119 11.59494974394837 -6.261272861732119
S 610.1769905026231 190.71874810162362 610.1769905026231 212.51725362024655
z" fill="none" stroke="none"></path>
<circle cx="0" cy="0" r="2.176768667501503" fill="#b784e7">
  <animateMotion begin="-4.764086450878498s" dur="10s" repeatCount="indefinite">
    <mpath xlink:href="#path1"></mpath>
  </animateMotion>
</circle><path id="path2" d="M 102.41415526855417 434.93572887791004
c 0 27.826295079448883 -6.808561561992811 7.992659224948083 -14.801220786940894 7.992659224948083
S 72.81171369467239 462.7620239573589 72.81171369467239 434.93572887791004
s 6.808561561992811 -7.992659224948083 14.801220786940894 -7.992659224948083
S 102.41415526855417 407.10943379846117 102.41415526855417 434.93572887791004
z" fill="none" stroke="none"></path>
<circle cx="0" cy="0" r="3.207840012489112" fill="#d2a1ff">
  <animateMotion begin="-2.480730427451101s" dur="10s" repeatCount="indefinite">
    <mpath xlink:href="#path2"></mpath>
  </animateMotion>
</circle><path id="path3" d="M 1255.7616650884017 298.4613350634515
c 0 20.973574093584446 -5.131831959068535 6.02432447368915 -11.156156432757685 6.02432447368915
S 1233.4493522228865 319.4349091570359 1233.4493522228865 298.4613350634515
s 5.131831959068535 -6.02432447368915 11.156156432757685 -6.02432447368915
S 1255.7616650884017 277.48776096986705 1255.7616650884017 298.4613350634515
z" fill="none" stroke="none"></path>
<circle cx="0" cy="0" r="3.742521056444884" fill="#b784e7">
  <animateMotion begin="-7.792225277538398s" dur="10s" repeatCount="indefinite">
    <mpath xlink:href="#path3"></mpath>
  </animateMotion>
</circle><path id="path4" d="M 978.6679914640483 357.31910149575384
c 0 22.798981355924997 -5.578474161556116 6.54864358095718 -12.127117742513295 6.54864358095718
S 954.4137559790217 380.1180828516788 954.4137559790217 357.31910149575384
s 5.578474161556116 -6.54864358095718 12.127117742513295 -6.54864358095718
S 978.6679914640483 334.52012013982886 978.6679914640483 357.31910149575384
z" fill="none" stroke="none"></path>
<circle cx="0" cy="0" r="2.5012189822736746" fill="#b784e7">
  <animateMotion begin="-9.720525588139097s" dur="10s" repeatCount="indefinite">
    <mpath xlink:href="#path4"></mpath>
  </animateMotion>
</circle><path id="path5" d="M 1185.1632656268987 319.8123460231269
c 0 29.73820400702702 -7.276369065549163 8.541824555209889 -15.81819362075905 8.541824555209889
S 1153.5268783853805 349.55055003015394 1153.5268783853805 319.8123460231269
s 7.276369065549163 -8.541824555209889 15.81819362075905 -8.541824555209889
S 1185.1632656268987 290.07414201609987 1185.1632656268987 319.8123460231269
z" fill="none" stroke="none"></path>
<circle cx="0" cy="0" r="2.3817432027283396" fill="#3494de">
  <animateMotion begin="-9.24915993915546s" dur="10s" repeatCount="indefinite">
    <mpath xlink:href="#path5"></mpath>
  </animateMotion>
</circle><path id="path6" d="M 23.296339163569577 312.3414790082023
c 0 30.06240117865351 -7.35569390541522 8.634945019400476 -15.990638924815697 8.634945019400476
S -8.684938686061818 342.4038801868558 -8.684938686061818 312.3414790082023
s 7.35569390541522 -8.634945019400476 15.990638924815697 -8.634945019400476
S 23.296339163569577 282.27907782954884 23.296339163569577 312.3414790082023
z" fill="none" stroke="none"></path>
<circle cx="0" cy="0" r="3.7349929185242843" fill="#9f66d3">
  <animateMotion begin="-6.933111912795051s" dur="10s" repeatCount="indefinite">
    <mpath xlink:href="#path6"></mpath>
  </animateMotion>
</circle><path id="path7" d="M 957.2352217082067 177.86075825843145
c 0 23.341930436334586 -5.711323404635057 6.704597040223764 -12.415920444858822 6.704597040223764
S 932.4033808184892 201.20268869476604 932.4033808184892 177.86075825843145
s 5.711323404635057 -6.704597040223764 12.415920444858822 -6.704597040223764
S 957.2352217082067 154.51882782209685 957.2352217082067 177.86075825843145
z" fill="none" stroke="none"></path>
<circle cx="0" cy="0" r="3.1383500192302143" fill="#d2a1ff">
  <animateMotion begin="-4.514018942401643s" dur="10s" repeatCount="indefinite">
    <mpath xlink:href="#path7"></mpath>
  </animateMotion>
</circle><path id="path8" d="M 566.8874577269272 99.83519923585173
c 0 27.978164576514605 -6.845721119785488 8.036281314530791 -14.882002434316279 8.036281314530791
S 537.1234528582946 127.81336381236633 537.1234528582946 99.83519923585173
s 6.845721119785488 -8.036281314530791 14.882002434316279 -8.036281314530791
S 566.8874577269272 71.85703465933713 566.8874577269272 99.83519923585173
z" fill="none" stroke="none"></path>
<circle cx="0" cy="0" r="3.250149285940607" fill="#9f66d3">
  <animateMotion begin="-2.787653244782886s" dur="10s" repeatCount="indefinite">
    <mpath xlink:href="#path8"></mpath>
  </animateMotion>
</circle><path id="path9" d="M 1220.653202461833 62.64823204864298
c 0 31.9981669081703 -7.829338711573583 9.190962835325513 -17.020301546899095 9.190962835325513
S 1186.6125993680346 94.64639895681329 1186.6125993680346 62.64823204864298
s 7.829338711573583 -9.190962835325513 17.020301546899095 -9.190962835325513
S 1220.653202461833 30.65006514047268 1220.653202461833 62.64823204864298
z" fill="none" stroke="none"></path>
<circle cx="0" cy="0" r="2.5734974085843327" fill="#d2a1ff">
  <animateMotion begin="-9.087487541191908s" dur="10s" repeatCount="indefinite">
    <mpath xlink:href="#path9"></mpath>
  </animateMotion>
</circle><path id="path10" d="M 949.2554007823474 543.8331518651815
c 0 33.04892849887874 -8.086439951853308 9.49277733478432 -17.57921728663763 9.49277733478432
S 914.0969662090722 576.8820803640602 914.0969662090722 543.8331518651815
s 8.086439951853308 -9.49277733478432 17.57921728663763 -9.49277733478432
S 949.2554007823474 510.7842233663028 949.2554007823474 543.8331518651815
z" fill="none" stroke="none"></path>
<circle cx="0" cy="0" r="2.3064284417909553" fill="#3494de">
  <animateMotion begin="-4.405997998500637s" dur="10s" repeatCount="indefinite">
    <mpath xlink:href="#path10"></mpath>
  </animateMotion>
</circle><path id="path11" d="M 923.7170051784046 400.92464554743765
c 0 35.75378611708713 -8.74826681588302 10.269704522993111 -19.01797133887613 10.269704522993111
S 885.6810625006524 436.6784316645248 885.6810625006524 400.92464554743765
s 8.74826681588302 -10.269704522993111 19.01797133887613 -10.269704522993111
S 923.7170051784046 365.1708594303505 923.7170051784046 400.92464554743765
z" fill="none" stroke="none"></path>
<circle cx="0" cy="0" r="2.655073260739268" fill="#9f66d3">
  <animateMotion begin="-3.632882014842298s" dur="10s" repeatCount="indefinite">
    <mpath xlink:href="#path11"></mpath>
  </animateMotion>
</circle><path id="path12" d="M 803.5850565386658 18.469590914994814
c 0 27.74019139719998 -6.787493639740419 7.967927316217015 -14.755420955957435 7.967927316217015
S 774.0742146267509 46.20978231219479 774.0742146267509 18.469590914994814
s 6.787493639740419 -7.967927316217015 14.755420955957435 -7.967927316217015
S 803.5850565386658 -9.270600482205165 803.5850565386658 18.469590914994814
z" fill="none" stroke="none"></path>
<circle cx="0" cy="0" r="3.6395256910966935" fill="#9f66d3">
  <animateMotion begin="-1.2204689296032867s" dur="10s" repeatCount="indefinite">
    <mpath xlink:href="#path12"></mpath>
  </animateMotion>
</circle><path id="path13" d="M 1019.9401508958082 156.6645196843777
c 0 20.521204618718258 -5.021145810962978 5.8943885606956705 -10.915534371658648 5.8943885606956705
S 998.1090821524909 177.18572430309595 998.1090821524909 156.6645196843777
s 5.021145810962978 -5.8943885606956705 10.915534371658648 -5.8943885606956705
S 1019.9401508958082 136.14331506565944 1019.9401508958082 156.6645196843777
z" fill="none" stroke="none"></path>
<circle cx="0" cy="0" r="3.366320263506842" fill="#9f66d3">
  <animateMotion begin="-6.483395285455895s" dur="10s" repeatCount="indefinite">
    <mpath xlink:href="#path13"></mpath>
  </animateMotion>
</circle><path id="path14" d="M 1336.1237218159802 153.44500065308605
c 0 21.74219326818506 -5.31989835285379 6.245098066393581 -11.564996419247372 6.245098066393581
S 1312.9937289774855 175.1871939212711 1312.9937289774855 153.44500065308605
s 5.31989835285379 -6.245098066393581 11.564996419247372 -6.245098066393581
S 1336.1237218159802 131.702807384901 1336.1237218159802 153.44500065308605
z" fill="none" stroke="none"></path>
<circle cx="0" cy="0" r="3.1525389731576405" fill="#b784e7">
  <animateMotion begin="-4.9401363384574175s" dur="10s" repeatCount="indefinite">
    <mpath xlink:href="#path14"></mpath>
  </animateMotion>
</circle><path id="path15" d="M 243.4777839439587 585.8874288472341
c 0 28.394869745103975 -6.947680895078632 8.155973224657524 -15.103654119736156 8.155973224657524
S 213.27047570448642 614.2822985923381 213.27047570448642 585.8874288472341
s 6.947680895078632 -8.155973224657524 15.103654119736156 -8.155973224657524
S 243.4777839439587 557.4925591021301 243.4777839439587 585.8874288472341
z" fill="none" stroke="none"></path>
<circle cx="0" cy="0" r="3.984280264444815" fill="#3494de">
  <animateMotion begin="-9.152673713087045s" dur="10s" repeatCount="indefinite">
    <mpath xlink:href="#path15"></mpath>
  </animateMotion>
</circle><path id="path16" d="M 466.8541864678799 181.85997357095152
c 0 36.03999752729191 -8.818297267316105 10.35191418337108 -19.170211450687187 10.35191418337108
S 428.51376356650553 217.89997109824344 428.51376356650553 181.85997357095152
s 8.818297267316105 -10.35191418337108 19.170211450687187 -10.35191418337108
S 466.8541864678799 145.8199760436596 466.8541864678799 181.85997357095152
z" fill="none" stroke="none"></path>
<circle cx="0" cy="0" r="2.078979825505772" fill="#9f66d3">
  <animateMotion begin="-3.303850057826019s" dur="10s" repeatCount="indefinite">
    <mpath xlink:href="#path16"></mpath>
  </animateMotion>
</circle><path id="path17" d="M 1163.0897458015752 91.63367784392229
c 0 24.166946551144896 -5.913189049748219 6.941569754052258 -12.854758803800477 6.941569754052258
S 1137.3802281939743 115.80062439506719 1137.3802281939743 91.63367784392229
s 5.913189049748219 -6.941569754052258 12.854758803800477 -6.941569754052258
S 1163.0897458015752 67.46673129277738 1163.0897458015752 91.63367784392229
z" fill="none" stroke="none"></path>
<circle cx="0" cy="0" r="3.5746706621623496" fill="#b784e7">
  <animateMotion begin="-4.007147079965321s" dur="10s" repeatCount="indefinite">
    <mpath xlink:href="#path17"></mpath>
  </animateMotion>
</circle><path id="path18" d="M 173.1091219186099 327.54586054313427
c 0 35.765056922557065 -8.751024566157579 10.272941882011072 -19.02396644816865 10.272941882011072
S 135.06118902227257 363.3109174656913 135.06118902227257 327.54586054313427
s 8.751024566157579 -10.272941882011072 19.02396644816865 -10.272941882011072
S 173.1091219186099 291.7808036205772 173.1091219186099 327.54586054313427
z" fill="none" stroke="none"></path>
<circle cx="0" cy="0" r="2.4968903288701254" fill="#b784e7">
  <animateMotion begin="-8.406600120943926s" dur="10s" repeatCount="indefinite">
    <mpath xlink:href="#path18"></mpath>
  </animateMotion>
</circle><path id="path19" d="M 922.0466077202072 98.497961587756
c 0 29.214911653441362 -7.1483294471186305 8.391517177052306 -15.539846624170936 8.391517177052306
S 890.9669144718653 127.71287324119736 890.9669144718653 98.497961587756
s 7.1483294471186305 -8.391517177052306 15.539846624170936 -8.391517177052306
S 922.0466077202072 69.28304993431463 922.0466077202072 98.497961587756
z" fill="none" stroke="none"></path>
<circle cx="0" cy="0" r="2.1003655019911895" fill="#9f66d3">
  <animateMotion begin="-6.435343220267471s" dur="10s" repeatCount="indefinite">
    <mpath xlink:href="#path19"></mpath>
  </animateMotion>
</circle><path id="path20" d="M 1341.1778784116154 424.5188137528936
c 0 24.08011184018805 -5.891942258769415 6.916627868990185 -12.8085701277596 6.916627868990185
S 1315.5607381560962 448.5989255930817 1315.5607381560962 424.5188137528936
s 5.891942258769415 -6.916627868990185 12.8085701277596 -6.916627868990185
S 1341.1778784116154 400.43870191270554 1341.1778784116154 424.5188137528936
z" fill="none" stroke="none"></path>
<circle cx="0" cy="0" r="3.027387392675405" fill="#b784e7">
  <animateMotion begin="-6.967615957660498s" dur="10s" repeatCount="indefinite">
    <mpath xlink:href="#path20"></mpath>
  </animateMotion>
</circle><path id="path21" d="M 1137.4295773569204 590.3420122859343
c 0 27.168866228973677 -6.647701311344622 7.803823278534992 -14.451524589879615 7.803823278534992
S 1108.526528177161 617.510878514908 1108.526528177161 590.3420122859343
s 6.647701311344622 -7.803823278534992 14.451524589879615 -7.803823278534992
S 1137.4295773569204 563.1731460569606 1137.4295773569204 590.3420122859343
z" fill="none" stroke="none"></path>
<circle cx="0" cy="0" r="2.9097434621661553" fill="#b784e7">
  <animateMotion begin="-5.057938850568185s" dur="10s" repeatCount="indefinite">
    <mpath xlink:href="#path21"></mpath>
  </animateMotion>
</circle><path id="path22" d="M 1209.1739497542385 479.8407542793433
c 0 20.15638554772126 -4.931881570187117 5.7896001041327025 -10.721481674319818 5.7896001041327025
S 1187.7309864055987 499.99713982706453 1187.7309864055987 479.8407542793433
s 4.931881570187117 -5.7896001041327025 10.721481674319818 -5.7896001041327025
S 1209.1739497542385 459.68436873162204 1209.1739497542385 479.8407542793433
z" fill="none" stroke="none"></path>
<circle cx="0" cy="0" r="3.9370110147833226" fill="#3494de">
  <animateMotion begin="-4.321036687426549s" dur="10s" repeatCount="indefinite">
    <mpath xlink:href="#path22"></mpath>
  </animateMotion>
</circle><path id="path23" d="M 389.1249987832485 251.78282377601442
c 0 24.960111580976953 -6.107261344281594 7.169393751982742 -13.276655096264335 7.169393751982742
S 362.5716885907198 276.7429353569914 362.5716885907198 251.78282377601442
s 6.107261344281594 -7.169393751982742 13.276655096264335 -7.169393751982742
S 389.1249987832485 226.82271219503747 389.1249987832485 251.78282377601442
z" fill="none" stroke="none"></path>
<circle cx="0" cy="0" r="2.8601507407587032" fill="#d2a1ff">
  <animateMotion begin="-4.173194514625608s" dur="10s" repeatCount="indefinite">
    <mpath xlink:href="#path23"></mpath>
  </animateMotion>
</circle><path id="path24" d="M 345.1905547751629 56.003490886111784
c 0 28.32387483201426 -6.930309799322637 8.135581068770053 -15.06589086809269 8.135581068770053
S 315.0587730389775 84.32736571812605 315.0587730389775 56.003490886111784
s 6.930309799322637 -8.135581068770053 15.06589086809269 -8.135581068770053
S 345.1905547751629 27.679616054097526 345.1905547751629 56.003490886111784
z" fill="none" stroke="none"></path>
<circle cx="0" cy="0" r="2.0283312598276266" fill="#3494de">
  <animateMotion begin="-1.3075399891102824s" dur="10s" repeatCount="indefinite">
    <mpath xlink:href="#path24"></mpath>
  </animateMotion>
</circle><path id="path25" d="M 253.1879437589464 329.1405409696229
c 0 33.3058407999047 -8.149301472317106 9.566571293589648 -17.715872765906756 9.566571293589648
S 217.75619822713287 362.44638176952765 217.75619822713287 329.1405409696229
s 8.149301472317106 -9.566571293589648 17.715872765906756 -9.566571293589648
S 253.1879437589464 295.8347001697182 253.1879437589464 329.1405409696229
z" fill="none" stroke="none"></path>
<circle cx="0" cy="0" r="3.9889227410379613" fill="#9f66d3">
  <animateMotion begin="-9.090365497153812s" dur="10s" repeatCount="indefinite">
    <mpath xlink:href="#path25"></mpath>
  </animateMotion>
</circle><path id="path26" d="M 1189.8890831705323 395.038349169927
c 0 24.69622194218853 -6.042692602875917 7.093595664245642 -13.136288267121559 7.093595664245642
S 1163.6165066362894 419.73457111211553 1163.6165066362894 395.038349169927
s 6.042692602875917 -7.093595664245642 13.136288267121559 -7.093595664245642
S 1189.8890831705323 370.3421272277385 1189.8890831705323 395.038349169927
z" fill="none" stroke="none"></path>
<circle cx="0" cy="0" r="3.805593547238504" fill="#9f66d3">
  <animateMotion begin="-2.8817168616547173s" dur="10s" repeatCount="indefinite">
    <mpath xlink:href="#path26"></mpath>
  </animateMotion>
</circle><path id="path27" d="M 862.3052141407687 380.9714216269048
c 0 35.70212018811824 -8.73562515241191 10.254864309353112 -18.990489461765023 10.254864309353112
S 824.3242352172387 416.6735418150231 824.3242352172387 380.9714216269048
s 8.73562515241191 -10.254864309353112 18.990489461765023 -10.254864309353112
S 862.3052141407687 345.26930143878656 862.3052141407687 380.9714216269048
z" fill="none" stroke="none"></path>
<circle cx="0" cy="0" r="3.30182448728141" fill="#9f66d3">
  <animateMotion begin="-9.272388141677744s" dur="10s" repeatCount="indefinite">
    <mpath xlink:href="#path27"></mpath>
  </animateMotion>
</circle><path id="path28" d="M 1305.9662630113305 170.23071433417434
c 0 20.182418858907155 -4.938251422924091 5.797077757345673 -10.735329180269764 5.797077757345673
S 1284.4956046507912 190.41313319308148 1284.4956046507912 170.23071433417434
s 4.938251422924091 -5.797077757345673 10.735329180269764 -5.797077757345673
S 1305.9662630113305 150.0482954752672 1305.9662630113305 170.23071433417434
z" fill="none" stroke="none"></path>
<circle cx="0" cy="0" r="2.970177113875853" fill="#9f66d3">
  <animateMotion begin="-8.774990247116033s" dur="10s" repeatCount="indefinite">
    <mpath xlink:href="#path28"></mpath>
  </animateMotion>
</circle><path id="path29" d="M 1325.1296159712729 276.3921493833192
c 0 20.890041989737465 -5.111393252808103 6.000331209818208 -11.111724462626311 6.000331209818208
S 1302.90616704602 297.28219137305666 1302.90616704602 276.3921493833192
s 5.111393252808103 -6.000331209818208 11.111724462626311 -6.000331209818208
S 1325.1296159712729 255.50210739358172 1325.1296159712729 276.3921493833192
z" fill="none" stroke="none"></path>
<circle cx="0" cy="0" r="3.559900511071029" fill="#9f66d3">
  <animateMotion begin="-3.2490561380065586s" dur="10s" repeatCount="indefinite">
    <mpath xlink:href="#path29"></mpath>
  </animateMotion>
</circle><path id="path30" d="M 1007.3563836200211 77.89080908967662
c 0 22.68887052054291 -5.551532148643477 6.517016000581474 -12.068548149224952 6.517016000581474
S 983.2192873215712 100.57967961021953 983.2192873215712 77.89080908967662
s 5.551532148643477 -6.517016000581474 12.068548149224952 -6.517016000581474
S 1007.3563836200211 55.201938569133716 1007.3563836200211 77.89080908967662
z" fill="none" stroke="none"></path>
<circle cx="0" cy="0" r="3.745724110092159" fill="#9f66d3">
  <animateMotion begin="-5.043869193072117s" dur="10s" repeatCount="indefinite">
    <mpath xlink:href="#path30"></mpath>
  </animateMotion>
</circle><path id="path31" d="M 263.761799520928 83.22281307841244
c 0 35.36038719032967 -8.652009631676407 10.15670695892448 -18.808716590600888 10.15670695892448
S 226.14436633972622 118.5832002687421 226.14436633972622 83.22281307841244
s 8.652009631676407 -10.15670695892448 18.808716590600888 -10.15670695892448
S 263.761799520928 47.862425888082775 263.761799520928 83.22281307841244
z" fill="none" stroke="none"></path>
<circle cx="0" cy="0" r="3.12224053796705" fill="#9f66d3">
  <animateMotion begin="-5.5770844331966485s" dur="10s" repeatCount="indefinite">
    <mpath xlink:href="#path31"></mpath>
  </animateMotion>
</circle><path id="path32" d="M 1003.537447262696 422.99443909921814
c 0 34.82644141384804 -8.521363324664945 10.003339555041459 -18.524702879706403 10.003339555041459
S 966.4880415032832 457.8208805130662 966.4880415032832 422.99443909921814
s 8.521363324664945 -10.003339555041459 18.524702879706403 -10.003339555041459
S 1003.537447262696 388.1679976853701 1003.537447262696 422.99443909921814
z" fill="none" stroke="none"></path>
<circle cx="0" cy="0" r="2.832105382894311" fill="#9f66d3">
  <animateMotion begin="-6.215353656534795s" dur="10s" repeatCount="indefinite">
    <mpath xlink:href="#path32"></mpath>
  </animateMotion>
</circle><path id="path33" d="M 1064.866903196983 534.2322581520386
c 0 19.366391665173964 -4.738585194670224 5.562686967656351 -10.301272162326576 5.562686967656351
S 1044.26435887233 553.5986498172126 1044.26435887233 534.2322581520386
s 4.738585194670224 -5.562686967656351 10.301272162326576 -5.562686967656351
S 1064.866903196983 514.8658664868647 1064.866903196983 534.2322581520386
z" fill="none" stroke="none"></path>
<circle cx="0" cy="0" r="2.513232184107993" fill="#9f66d3">
  <animateMotion begin="-1.5166738290505632s" dur="10s" repeatCount="indefinite">
    <mpath xlink:href="#path33"></mpath>
  </animateMotion>
</circle><path id="path34" d="M 689.8427140073092 312.84949191450636
c 0 24.448680561280586 -5.9821239671218445 7.022493352708254 -13.004617319830098 7.022493352708254
S 663.8334793676489 337.29817247578694 663.8334793676489 312.84949191450636
s 5.9821239671218445 -7.022493352708254 13.004617319830098 -7.022493352708254
S 689.8427140073092 288.4008113532258 689.8427140073092 312.84949191450636
z" fill="none" stroke="none"></path>
<circle cx="0" cy="0" r="3.014842464638794" fill="#d2a1ff">
  <animateMotion begin="-2.83196653497521s" dur="10s" repeatCount="indefinite">
    <mpath xlink:href="#path34"></mpath>
  </animateMotion>
</circle><path id="path35" d="M 550.3234291351486 314.0179511324968
c 0 21.773858764342908 -5.327646293403051 6.2541934748644525 -11.581839768267503 6.2541934748644525
S 527.1597495986135 335.7918098968397 527.1597495986135 314.0179511324968
s 5.327646293403051 -6.2541934748644525 11.581839768267503 -6.2541934748644525
S 550.3234291351486 292.24409236815393 550.3234291351486 314.0179511324968
z" fill="none" stroke="none"></path>
<circle cx="0" cy="0" r="2.1072928808164373" fill="#3494de">
  <animateMotion begin="-5.336422235068685s" dur="10s" repeatCount="indefinite">
    <mpath xlink:href="#path35"></mpath>
  </animateMotion>
</circle><path id="path36" d="M 649.9763735299265 347.26341579503816
c 0 19.924017511196368 -4.875025561250175 5.722856093641511 -10.597881654891685 5.722856093641511
S 628.7806102201431 367.18743330623454 628.7806102201431 347.26341579503816
s 4.875025561250175 -5.722856093641511 10.597881654891685 -5.722856093641511
S 649.9763735299265 327.3393982838418 649.9763735299265 347.26341579503816
z" fill="none" stroke="none"></path>
<circle cx="0" cy="0" r="2.795742916736795" fill="#9f66d3">
  <animateMotion begin="-3.8262660447644636s" dur="10s" repeatCount="indefinite">
    <mpath xlink:href="#path36"></mpath>
  </animateMotion>
</circle><path id="path37" d="M 1016.6971077142088 551.4674543648035
c 0 23.738375276063735 -5.8083258654198495 6.81846949418852 -12.62679535960837 6.81846949418852
S 991.4435169949919 575.2058296408673 991.4435169949919 551.4674543648035
s 5.8083258654198495 -6.81846949418852 12.62679535960837 -6.81846949418852
S 1016.6971077142088 527.7290790887398 1016.6971077142088 551.4674543648035
z" fill="none" stroke="none"></path>
<circle cx="0" cy="0" r="3.9374293723007003" fill="#b784e7">
  <animateMotion begin="-5.782655233879035s" dur="10s" repeatCount="indefinite">
    <mpath xlink:href="#path37"></mpath>
  </animateMotion>
</circle><path id="path38" d="M 1362.5707907613182 251.01923753787574
c 0 29.138172133803195 -7.129552756143334 8.369474974603046 -15.49902773074638 8.369474974603046
S 1331.5727352998256 280.1574096716789 1331.5727352998256 251.01923753787574
s 7.129552756143334 -8.369474974603046 15.49902773074638 -8.369474974603046
S 1362.5707907613182 221.88106540407256 1362.5707907613182 251.01923753787574
z" fill="none" stroke="none"></path>
<circle cx="0" cy="0" r="2.6067880257095855" fill="#b784e7">
  <animateMotion begin="-2.4879344076606547s" dur="10s" repeatCount="indefinite">
    <mpath xlink:href="#path38"></mpath>
  </animateMotion>
</circle><path id="path39" d="M 730.6637282733258 330.6803950319137
c 0 32.51713158761613 -7.956319431012456 9.340027158145059 -17.296346589157515 9.340027158145059
S 696.0710350950106 363.1975266195298 696.0710350950106 330.6803950319137
s 7.956319431012456 -9.340027158145059 17.296346589157515 -9.340027158145059
S 730.6637282733258 298.16326344429757 730.6637282733258 330.6803950319137
z" fill="none" stroke="none"></path>
<circle cx="0" cy="0" r="2.015345561712953" fill="#b784e7">
  <animateMotion begin="-8.94105422397051s" dur="10s" repeatCount="indefinite">
    <mpath xlink:href="#path39"></mpath>
  </animateMotion>
</circle><path id="path40" d="M 752.2821560490399 39.64882563856728
c 0 34.66634521540272 -8.482190850577261 9.957354476764612 -18.43954532734187 9.957354476764612
S 715.4030653943562 74.31517085397 715.4030653943562 39.64882563856728
s 8.482190850577261 -9.957354476764612 18.43954532734187 -9.957354476764612
S 752.2821560490399 4.98248042316456 752.2821560490399 39.64882563856728
z" fill="none" stroke="none"></path>
<circle cx="0" cy="0" r="3.4865404308505292" fill="#b784e7">
  <animateMotion begin="-0.47182744130635834s" dur="10s" repeatCount="indefinite">
    <mpath xlink:href="#path40"></mpath>
  </animateMotion>
</circle><path id="path41" d="M 1037.416288745662 95.7212785378127
c 0 30.022484324025065 -7.345927015452941 8.62347953987954 -15.969406555332482 8.62347953987954
S 1005.4774756349971 125.74376286183775 1005.4774756349971 95.7212785378127
s 7.345927015452941 -8.62347953987954 15.969406555332482 -8.62347953987954
S 1037.416288745662 65.69879421378764 1037.416288745662 95.7212785378127
z" fill="none" stroke="none"></path>
<circle cx="0" cy="0" r="2.471614017130034" fill="#d2a1ff">
  <animateMotion begin="-0.7179433652854095s" dur="10s" repeatCount="indefinite">
    <mpath xlink:href="#path41"></mpath>
  </animateMotion>
</circle><path id="path42" d="M 493.6948330816857 107.10596982075062
c 0 32.82494297448366 -8.031634983118343 9.428441067138925 -17.460076050257268 9.428441067138925
S 458.7746809811712 139.9309127952343 458.7746809811712 107.10596982075062
s 8.031634983118343 -9.428441067138925 17.460076050257268 -9.428441067138925
S 493.6948330816857 74.28102684626695 493.6948330816857 107.10596982075062
z" fill="none" stroke="none"></path>
<circle cx="0" cy="0" r="2.2658782238015656" fill="#d2a1ff">
  <animateMotion begin="-1.5936223910337999s" dur="10s" repeatCount="indefinite">
    <mpath xlink:href="#path42"></mpath>
  </animateMotion>
</circle><path id="path43" d="M 88.10158590963948 221.98117066205614
c 0 34.0942049913055 -8.342199093617303 9.793016327289878 -18.135215420907183 9.793016327289878
S 51.83115506782511 256.0753756533617 51.83115506782511 221.98117066205614
s 8.342199093617303 -9.793016327289878 18.135215420907183 -9.793016327289878
S 88.10158590963948 187.88696567075064 88.10158590963948 221.98117066205614
z" fill="none" stroke="none"></path>
<circle cx="0" cy="0" r="2.451300930333807" fill="#9f66d3">
  <animateMotion begin="-5.552021079675127s" dur="10s" repeatCount="indefinite">
    <mpath xlink:href="#path43"></mpath>
  </animateMotion>
</circle><path id="path44" d="M 198.4334962884085 236.37897736051465
c 0 28.588945352630038 -6.995167479898838 8.211718345968203 -15.20688582586704 8.211718345968203
S 168.01972463667443 264.9679227131447 168.01972463667443 236.37897736051465
s 6.995167479898838 -8.211718345968203 15.20688582586704 -8.211718345968203
S 198.4334962884085 207.7900320078846 198.4334962884085 236.37897736051465
z" fill="none" stroke="none"></path>
<circle cx="0" cy="0" r="2.316333762091882" fill="#9f66d3">
  <animateMotion begin="-5.365187878688973s" dur="10s" repeatCount="indefinite">
    <mpath xlink:href="#path44"></mpath>
  </animateMotion>
</circle><path id="path45" d="M 393.9034282552593 408.11387184490394
c 0 33.27938706328259 -8.142828749526592 9.558972879879043 -17.701801629405633 9.558972879879043
S 358.49982499644807 441.3932589081865 358.49982499644807 408.11387184490394
s 8.142828749526592 -9.558972879879043 17.701801629405633 -9.558972879879043
S 393.9034282552593 374.83448478162137 393.9034282552593 408.11387184490394
z" fill="none" stroke="none"></path>
<circle cx="0" cy="0" r="3.708832557474797" fill="#9f66d3">
  <animateMotion begin="-6.51255163906357s" dur="10s" repeatCount="indefinite">
    <mpath xlink:href="#path45"></mpath>
  </animateMotion>
</circle><path id="path46" d="M 455.4653189727651 49.48635153253031
c 0 19.362759383431133 -4.7376964448820855 5.561643652687666 -10.29934009756975 5.561643652687666
S 434.86663877762555 68.84911091596143 434.86663877762555 49.48635153253031
s 4.7376964448820855 -5.561643652687666 10.29934009756975 -5.561643652687666
S 455.4653189727651 30.123592149099174 455.4653189727651 49.48635153253031
z" fill="none" stroke="none"></path>
<circle cx="0" cy="0" r="3.7754989229974445" fill="#9f66d3">
  <animateMotion begin="-8.860907121767525s" dur="10s" repeatCount="indefinite">
    <mpath xlink:href="#path46"></mpath>
  </animateMotion>
</circle><path id="path47" d="M 483.9671458604724 76.670565948352
c 0 29.67139182737841 -7.2600214045713125 8.522633822757628 -15.782655227328942 8.522633822757628
S 452.40183540581455 106.34195777573042 452.40183540581455 76.670565948352
s 7.2600214045713125 -8.522633822757628 15.782655227328942 -8.522633822757628
S 483.9671458604724 46.99917412097359 483.9671458604724 76.670565948352
z" fill="none" stroke="none"></path>
<circle cx="0" cy="0" r="3.093832197297004" fill="#9f66d3">
  <animateMotion begin="-6.412280713437117s" dur="10s" repeatCount="indefinite">
    <mpath xlink:href="#path47"></mpath>
  </animateMotion>
</circle><path id="path48" d="M 445.9082414010189 352.4031725735449
c 0 20.9985196584887 -5.137935661119576 6.031489689140372 -11.169425350259948 6.031489689140372
S 423.56939070049907 373.4016922320336 423.56939070049907 352.4031725735449
s 5.137935661119576 -6.031489689140372 11.169425350259948 -6.031489689140372
S 445.9082414010189 331.4046529150562 445.9082414010189 352.4031725735449
z" fill="none" stroke="none"></path>
<circle cx="0" cy="0" r="2.415866022385758" fill="#3494de">
  <animateMotion begin="-9.798804800654093s" dur="10s" repeatCount="indefinite">
    <mpath xlink:href="#path48"></mpath>
  </animateMotion>
</circle><path id="path49" d="M 817.8762701191773 613.458395191239
c 0 25.29529483473215 -6.189274268072759 7.265669792954979 -13.454944061027739 7.265669792954979
S 790.9663819971219 638.7536900259712 790.9663819971219 613.458395191239
s 6.189274268072759 -7.265669792954979 13.454944061027739 -7.265669792954979
S 817.8762701191773 588.1631003565068 817.8762701191773 613.458395191239
z" fill="none" stroke="none"></path>
<circle cx="0" cy="0" r="2.5726241228836937" fill="#9f66d3">
  <animateMotion begin="-1.935614771534091s" dur="10s" repeatCount="indefinite">
    <mpath xlink:href="#path49"></mpath>
  </animateMotion>
</circle><path id="path50" d="M 23.821544443416627 242.10853542309
c 0 29.909245364879396 -7.318219610555596 8.590953455869615 -15.909173066425211 8.590953455869615
S -7.996801689433794 272.0177807879694 -7.996801689433794 242.10853542309
s 7.318219610555596 -8.590953455869615 15.909173066425211 -8.590953455869615
S 23.821544443416627 212.19929005821058 23.821544443416627 242.10853542309
z" fill="none" stroke="none"></path>
<circle cx="0" cy="0" r="3.576856579455777" fill="#3494de">
  <animateMotion begin="-7.639905966657221s" dur="10s" repeatCount="indefinite">
    <mpath xlink:href="#path50"></mpath>
  </animateMotion>
</circle><path id="path51" d="M 83.69738528831172 229.3757111144534
c 0 35.195911503874925 -8.611765580735351 10.109463942602371 -18.721229523337723 10.109463942602371
S 46.25492624163627 264.5716226183283 46.25492624163627 229.3757111144534
s 8.611765580735351 -10.109463942602371 18.721229523337723 -10.109463942602371
S 83.69738528831172 194.17979961057847 83.69738528831172 229.3757111144534
z" fill="none" stroke="none"></path>
<circle cx="0" cy="0" r="3.181672798004105" fill="#3494de">
  <animateMotion begin="-6.161278241817671s" dur="10s" repeatCount="indefinite">
    <mpath xlink:href="#path51"></mpath>
  </animateMotion>
</circle><path id="path52" d="M 913.9314710356508 118.06925641900364
c 0 30.456178722517272 -7.452043729977629 8.748051335191132 -16.20009506516876 8.748051335191132
S 881.5312809053133 148.52543514152092 881.5312809053133 118.06925641900364
s 7.452043729977629 -8.748051335191132 16.20009506516876 -8.748051335191132
S 913.9314710356508 87.61307769648636 913.9314710356508 118.06925641900364
z" fill="none" stroke="none"></path>
<circle cx="0" cy="0" r="2.5334358912210306" fill="#9f66d3">
  <animateMotion begin="-3.974895337889972s" dur="10s" repeatCount="indefinite">
    <mpath xlink:href="#path52"></mpath>
  </animateMotion>
</circle><path id="path53" d="M 748.6194920133113 469.52681324692816
c 0 30.69392684286108 -7.510216142402179 8.816340688906907 -16.326556831309084 8.816340688906907
S 715.9663783506932 500.2207400897892 715.9663783506932 469.52681324692816
s 7.510216142402179 -8.816340688906907 16.326556831309084 -8.816340688906907
S 748.6194920133113 438.8328864040671 748.6194920133113 469.52681324692816
z" fill="none" stroke="none"></path>
<circle cx="0" cy="0" r="2.8680390697090656" fill="#3494de">
  <animateMotion begin="-9.416594173520362s" dur="10s" repeatCount="indefinite">
    <mpath xlink:href="#path53"></mpath>
  </animateMotion>
</circle><path id="path54" d="M 972.387153639761 323.0296757062433
c 0 25.796019997620167 -6.3117921270772746 7.40949510569941 -13.721287232776685 7.40949510569941
S 944.9445791742075 348.8256957038635 944.9445791742075 323.0296757062433
s 6.3117921270772746 -7.40949510569941 13.721287232776685 -7.40949510569941
S 972.387153639761 297.23365570862313 972.387153639761 323.0296757062433
z" fill="none" stroke="none"></path>
<circle cx="0" cy="0" r="2.710443539231833" fill="#9f66d3">
  <animateMotion begin="-7.701270518025771s" dur="10s" repeatCount="indefinite">
    <mpath xlink:href="#path54"></mpath>
  </animateMotion>
</circle><path id="path55" d="M 184.64189688707987 379.9581240255772
c 0 27.725689221101515 -6.7839452349503695 7.963761797550435 -14.747707032500806 7.963761797550435
S 155.14648282207824 407.6838132466787 155.14648282207824 379.9581240255772
s 6.7839452349503695 -7.963761797550435 14.747707032500806 -7.963761797550435
S 184.64189688707987 352.2324348044757 184.64189688707987 379.9581240255772
z" fill="none" stroke="none"></path>
<circle cx="0" cy="0" r="3.6640109847415507" fill="#d2a1ff">
  <animateMotion begin="-8.905683045073488s" dur="10s" repeatCount="indefinite">
    <mpath xlink:href="#path55"></mpath>
  </animateMotion>
</circle><path id="path56" d="M 486.01528411403444 208.11221021741784
c 0 33.22952859177166 -8.130629336284555 9.544651829551436 -17.67528116583599 9.544651829551436
S 450.66472178236245 241.3417388091895 450.66472178236245 208.11221021741784
s 8.130629336284555 -9.544651829551436 17.67528116583599 -9.544651829551436
S 486.01528411403444 174.88268162564617 486.01528411403444 208.11221021741784
z" fill="none" stroke="none"></path>
<circle cx="0" cy="0" r="2.0865511234713336" fill="#9f66d3">
  <animateMotion begin="-8.968490244710392s" dur="10s" repeatCount="indefinite">
    <mpath xlink:href="#path56"></mpath>
  </animateMotion>
</circle><path id="path57" d="M 826.1597883579356 543.5820878200761
c 0 31.46107785944195 -7.697923306033667 9.03669257664822 -16.734615882681886 9.03669257664822
S 792.6905565925719 575.0431656795181 792.6905565925719 543.5820878200761
s 7.697923306033667 -9.03669257664822 16.734615882681886 -9.03669257664822
S 826.1597883579356 512.1210099606342 826.1597883579356 543.5820878200761
z" fill="none" stroke="none"></path>
<circle cx="0" cy="0" r="2.5355333971309864" fill="#d2a1ff">
  <animateMotion begin="-3.399877695732443s" dur="10s" repeatCount="indefinite">
    <mpath xlink:href="#path57"></mpath>
  </animateMotion>
</circle><path id="path58" d="M 716.4192795867946 581.6986567032328
c 0 35.01543313631083 -8.56760598016116 10.057624411493537 -18.625230391654696 10.057624411493537
S 679.1688188034852 616.7140898395437 679.1688188034852 581.6986567032328
s 8.56760598016116 -10.057624411493537 18.625230391654696 -10.057624411493537
S 716.4192795867946 546.6832235669219 716.4192795867946 581.6986567032328
z" fill="none" stroke="none"></path>
<circle cx="0" cy="0" r="3.383823784492053" fill="#3494de">
  <animateMotion begin="-6.059551851267779s" dur="10s" repeatCount="indefinite">
    <mpath xlink:href="#path58"></mpath>
  </animateMotion>
</circle><path id="path59" d="M 509.7334397320943 585.0226415193334
c 0 24.779182769787106 -6.062991528777696 7.117424838130339 -13.180416366908034 7.117424838130339
S 483.37260699827823 609.8018242891205 483.37260699827823 585.0226415193334
s 6.062991528777696 -7.117424838130339 13.180416366908034 -7.117424838130339
S 509.7334397320943 560.2434587495463 509.7334397320943 585.0226415193334
z" fill="none" stroke="none"></path>
<circle cx="0" cy="0" r="2.9299450579206052" fill="#d2a1ff">
  <animateMotion begin="-4.855465665646781s" dur="10s" repeatCount="indefinite">
    <mpath xlink:href="#path59"></mpath>
  </animateMotion>
</circle><path id="path60" d="M 1122.0443934441564 385.2996863341549
c 0 32.40404190173501 -7.9286485504245245 9.307543950498356 -17.23619250092288 9.307543950498356
S 1087.5720084423106 417.7037282358899 1087.5720084423106 385.2996863341549
s 7.9286485504245245 -9.307543950498356 17.23619250092288 -9.307543950498356
S 1122.0443934441564 352.8956444324199 1122.0443934441564 385.2996863341549
z" fill="none" stroke="none"></path>
<circle cx="0" cy="0" r="2.6485785705934717" fill="#9f66d3">
  <animateMotion begin="-7.773041239491092s" dur="10s" repeatCount="indefinite">
    <mpath xlink:href="#path60"></mpath>
  </animateMotion>
</circle><path id="path61" d="M 1027.542967580729 277.0819827049017
c 0 28.982347846610974 -7.091425536936727 8.324716934664854 -15.416142471601582 8.324716934664854
S 996.7106826375259 306.0643305515127 996.7106826375259 277.0819827049017
s 7.091425536936727 -8.324716934664854 15.416142471601582 -8.324716934664854
S 1027.542967580729 248.09963485829073 1027.542967580729 277.0819827049017
z" fill="none" stroke="none"></path>
<circle cx="0" cy="0" r="2.061410423202937" fill="#9f66d3">
  <animateMotion begin="-0.5119022803040929s" dur="10s" repeatCount="indefinite">
    <mpath xlink:href="#path61"></mpath>
  </animateMotion>
</circle><path id="path62" d="M 468.0356128541461 548.6931400799147
c 0 35.03963784971552 -8.573528410036776 10.064576829173607 -18.638105239210383 10.064576829173607
S 430.7594023757253 583.7327779296302 430.7594023757253 548.6931400799147
s 8.573528410036776 -10.064576829173607 18.638105239210383 -10.064576829173607
S 468.0356128541461 513.6535022301991 468.0356128541461 548.6931400799147
z" fill="none" stroke="none"></path>
<circle cx="0" cy="0" r="3.3563070854185146" fill="#b784e7">
  <animateMotion begin="-4.904943445507087s" dur="10s" repeatCount="indefinite">
    <mpath xlink:href="#path62"></mpath>
  </animateMotion>
</circle><path id="path63" d="M 213.4228271336992 541.9014345630397
c 0 28.330955225628298 -6.9320422360579865 8.13761479885068 -15.069657034908667 8.13761479885068
S 183.28351306388188 570.232389788668 183.28351306388188 541.9014345630397
s 6.9320422360579865 -8.13761479885068 15.069657034908667 -8.13761479885068
S 213.4228271336992 513.5704793374115 213.4228271336992 541.9014345630397
z" fill="none" stroke="none"></path>
<circle cx="0" cy="0" r="2.422618527541063" fill="#9f66d3">
  <animateMotion begin="-0.26915310198923015s" dur="10s" repeatCount="indefinite">
    <mpath xlink:href="#path63"></mpath>
  </animateMotion>
</circle><path id="path64" d="M 234.89099415742794 82.96367159530038
c 0 36.98213471505572 -9.048820196237038 10.622528056452175 -19.671348252689214 10.622528056452175
S 195.54829765204948 119.9458063103561 195.54829765204948 82.96367159530038
s 9.048820196237038 -10.622528056452175 19.671348252689214 -10.622528056452175
S 234.89099415742794 45.98153688024466 234.89099415742794 82.96367159530038
z" fill="none" stroke="none"></path>
<circle cx="0" cy="0" r="3.7496305324880326" fill="#9f66d3">
  <animateMotion begin="-1.2083603156784029s" dur="10s" repeatCount="indefinite">
    <mpath xlink:href="#path64"></mpath>
  </animateMotion>
</circle><path id="path65" d="M 989.4168272023375 524.6631504052125
c 0 24.238829413666434 -5.930777409726892 6.962216959244614 -12.892994368971507 6.962216959244614
S 963.6308384643945 548.9019798188789 963.6308384643945 524.6631504052125
s 5.930777409726892 -6.962216959244614 12.892994368971507 -6.962216959244614
S 989.4168272023375 500.42432099154604 989.4168272023375 524.6631504052125
z" fill="none" stroke="none"></path>
<circle cx="0" cy="0" r="3.571510606813032" fill="#3494de">
  <animateMotion begin="-2.455285035513455s" dur="10s" repeatCount="indefinite">
    <mpath xlink:href="#path65"></mpath>
  </animateMotion>
</circle><path id="path66" d="M 1011.1005234069131 174.0947720046793
c 0 33.26827627932918 -8.140110153452884 9.555781484488168 -17.695891637941052 9.555781484488168
S 975.708740131031 207.36304828400847 975.708740131031 174.0947720046793
s 8.140110153452884 -9.555781484488168 17.695891637941052 -9.555781484488168
S 1011.1005234069131 140.82649572535013 1011.1005234069131 174.0947720046793
z" fill="none" stroke="none"></path>
<circle cx="0" cy="0" r="2.7305705410149224" fill="#d2a1ff">
  <animateMotion begin="-8.7397171700323s" dur="10s" repeatCount="indefinite">
    <mpath xlink:href="#path66"></mpath>
  </animateMotion>
</circle><path id="path67" d="M 676.66689732242 443.0114257601327
c 0 31.045947090744487 -7.59634875624599 8.917452887767034 -16.513801644013025 8.917452887767034
S 643.639294034394 474.0573728508772 643.639294034394 443.0114257601327
s 7.59634875624599 -8.917452887767034 16.513801644013025 -8.917452887767034
S 676.66689732242 411.9654786693882 676.66689732242 443.0114257601327
z" fill="none" stroke="none"></path>
<circle cx="0" cy="0" r="2.8470986813632684" fill="#9f66d3">
  <animateMotion begin="-4.926927911014937s" dur="10s" repeatCount="indefinite">
    <mpath xlink:href="#path67"></mpath>
  </animateMotion>
</circle><path id="path68" d="M 162.04525124803737 285.20081724548294
c 0 27.76526964117383 -6.793629805819127 7.9751306416137595 -14.768760447432888 7.9751306416137595
S 132.50773035317158 312.96608688665674 132.50773035317158 285.20081724548294
s 6.793629805819127 -7.9751306416137595 14.768760447432888 -7.9751306416137595
S 162.04525124803737 257.43554760430914 162.04525124803737 285.20081724548294
z" fill="none" stroke="none"></path>
<circle cx="0" cy="0" r="3.0059132923428606" fill="#9f66d3">
  <animateMotion begin="-3.3687856496547397s" dur="10s" repeatCount="indefinite">
    <mpath xlink:href="#path68"></mpath>
  </animateMotion>
</circle><path id="path69" d="M 672.0683855455919 466.61592150638495
c 0 33.76015727392727 -8.260464013833268 9.697066451021664 -17.957530464854933 9.697066451021664
S 636.1533246158821 500.37607878031224 636.1533246158821 466.61592150638495
s 8.260464013833268 -9.697066451021664 17.957530464854933 -9.697066451021664
S 672.0683855455919 432.85576423245766 672.0683855455919 466.61592150638495
z" fill="none" stroke="none"></path>
<circle cx="0" cy="0" r="2.756423711213447" fill="#b784e7">
  <animateMotion begin="-9.070301265804375s" dur="10s" repeatCount="indefinite">
    <mpath xlink:href="#path69"></mpath>
  </animateMotion>
</circle><path id="path70" d="M 493.07237327463037 621.4397473753171
c 0 25.756277877896384 -6.302067991400179 7.398079815991515 -13.700147807391694 7.398079815991515
S 465.67207765984693 647.1960252532135 465.67207765984693 621.4397473753171
s 6.302067991400179 -7.398079815991515 13.700147807391694 -7.398079815991515
S 493.07237327463037 595.6834694974207 493.07237327463037 621.4397473753171
z" fill="none" stroke="none"></path>
<circle cx="0" cy="0" r="2.1305932175893374" fill="#3494de">
  <animateMotion begin="-4.56224300946478s" dur="10s" repeatCount="indefinite">
    <mpath xlink:href="#path70"></mpath>
  </animateMotion>
</circle><path id="path71" d="M 447.07787220347814 361.33121100751976
c 0 28.714924160600578 -7.025992081849076 8.247903748257613 -15.273895830106689 8.247903748257613
S 416.5300805432647 390.0461351681203 416.5300805432647 361.33121100751976
s 7.025992081849076 -8.247903748257613 15.273895830106689 -8.247903748257613
S 447.07787220347814 332.6162868469192 447.07787220347814 361.33121100751976
z" fill="none" stroke="none"></path>
<circle cx="0" cy="0" r="3.7152565385961807" fill="#9f66d3">
  <animateMotion begin="-8.277378191444583s" dur="10s" repeatCount="indefinite">
    <mpath xlink:href="#path71"></mpath>
  </animateMotion>
</circle><path id="path72" d="M 1355.3260889979765 511.69132340122104
c 0 26.344649220690588 -6.4460311922966325 7.5670800953047435 -14.013111287601376 7.5670800953047435
S 1327.299866422774 538.0359726219116 1327.299866422774 511.69132340122104
s 6.4460311922966325 -7.5670800953047435 14.013111287601376 -7.5670800953047435
S 1355.3260889979765 485.34667418053044 1355.3260889979765 511.69132340122104
z" fill="none" stroke="none"></path>
<circle cx="0" cy="0" r="3.611252401486523" fill="#3494de">
  <animateMotion begin="-1.8016779449499043s" dur="10s" repeatCount="indefinite">
    <mpath xlink:href="#path72"></mpath>
  </animateMotion>
</circle><path id="path73" d="M 927.0532408716041 16.866068578176343
c 0 37.55404666837225 -9.188756099708103 10.786800638787776 -19.97555673849588 10.786800638787776
S 887.1021273946122 54.42011524654859 887.1021273946122 16.866068578176343
s 9.188756099708103 -10.786800638787776 19.97555673849588 -10.786800638787776
S 927.0532408716041 -20.68797809019591 927.0532408716041 16.866068578176343
z" fill="none" stroke="none"></path>
<circle cx="0" cy="0" r="3.5622764445220936" fill="#b784e7">
  <animateMotion begin="-0.610141307898171s" dur="10s" repeatCount="indefinite">
    <mpath xlink:href="#path73"></mpath>
  </animateMotion>
</circle><path id="path74" d="M 480.6133850578724 272.1910587833966
c 0 34.15106480972533 -8.356111602379599 9.809348402793445 -18.165460005173045 9.809348402793445
S 444.28246504752633 306.3421235931219 444.28246504752633 272.1910587833966
s 8.356111602379599 -9.809348402793445 18.165460005173045 -9.809348402793445
S 480.6133850578724 238.0399939736713 480.6133850578724 272.1910587833966
z" fill="none" stroke="none"></path>
<circle cx="0" cy="0" r="3.1703119537484516" fill="#9f66d3">
  <animateMotion begin="-8.344575076911585s" dur="10s" repeatCount="indefinite">
    <mpath xlink:href="#path74"></mpath>
  </animateMotion>
</circle><path id="path75" d="M 1060.0157867722467 310.2009577220783
c 0 27.410131879717685 -6.706734396101135 7.873122986727421 -14.579857382828557 7.873122986727421
S 1030.8560720065896 337.611089601796 1030.8560720065896 310.2009577220783
s 6.706734396101135 -7.873122986727421 14.579857382828557 -7.873122986727421
S 1060.0157867722467 282.79082584236056 1060.0157867722467 310.2009577220783
z" fill="none" stroke="none"></path>
<circle cx="0" cy="0" r="2.0731841504547694" fill="#b784e7">
  <animateMotion begin="-8.363266499762576s" dur="10s" repeatCount="indefinite">
    <mpath xlink:href="#path75"></mpath>
  </animateMotion>
</circle><path id="path76" d="M 470.6860380591814 563.3713775277829
c 0 32.88159008128475 -8.045495445420736 9.444712044624342 -17.490207490045076 9.444712044624342
S 435.70562307909125 596.2529676090677 435.70562307909125 563.3713775277829
s 8.045495445420736 -9.444712044624342 17.490207490045076 -9.444712044624342
S 470.6860380591814 530.4897874464981 470.6860380591814 563.3713775277829
z" fill="none" stroke="none"></path>
<circle cx="0" cy="0" r="2.422948408639806" fill="#9f66d3">
  <animateMotion begin="-8.874364273643359s" dur="10s" repeatCount="indefinite">
    <mpath xlink:href="#path76"></mpath>
  </animateMotion>
</circle><path id="path77" d="M 715.6282983011007 384.0232770928346
c 0 27.51702394705798 -6.73288883810993 7.90382602734644 -14.636714865456371 7.90382602734644
S 686.3548685701879 411.54030103989254 686.3548685701879 384.0232770928346
s 6.73288883810993 -7.90382602734644 14.636714865456371 -7.90382602734644
S 715.6282983011007 356.5062531457766 715.6282983011007 384.0232770928346
z" fill="none" stroke="none"></path>
<circle cx="0" cy="0" r="3.8631530992391103" fill="#d2a1ff">
  <animateMotion begin="-5.348646147783153s" dur="10s" repeatCount="indefinite">
    <mpath xlink:href="#path77"></mpath>
  </animateMotion>
</circle><path id="path78" d="M 1365.4118335569044 127.66517877973571
c 0 19.183191232909902 -4.693759556988593 5.510065566899653 -10.203825123888246 5.510065566899653
S 1345.004183309128 146.8483700126456 1345.004183309128 127.66517877973571
s 4.693759556988593 -5.510065566899653 10.203825123888246 -5.510065566899653
S 1365.4118335569044 108.4819875468258 1365.4118335569044 127.66517877973571
z" fill="none" stroke="none"></path>
<circle cx="0" cy="0" r="2.5615886677121753" fill="#9f66d3">
  <animateMotion begin="-9.504622512190938s" dur="10s" repeatCount="indefinite">
    <mpath xlink:href="#path78"></mpath>
  </animateMotion>
</circle><path id="path79" d="M 246.92968735830027 90.7849992534779
c 0 19.004777728201123 -4.650105188815168 5.458819134696067 -10.108924323511236 5.458819134696067
S 226.71183871127778 109.78977698167903 226.71183871127778 90.7849992534779
s 4.650105188815168 -5.458819134696067 10.108924323511236 -5.458819134696067
S 246.92968735830027 71.78022152527679 246.92968735830027 90.7849992534779
z" fill="none" stroke="none"></path>
<circle cx="0" cy="0" r="2.0036027684415947" fill="#9f66d3">
  <animateMotion begin="-9.652775524442482s" dur="10s" repeatCount="indefinite">
    <mpath xlink:href="#path79"></mpath>
  </animateMotion>
</circle><path id="path80" d="M 684.7086102364924 468.58245559541604
c 0 31.66044049733284 -7.746703525943141 9.093956313063687 -16.84065983900683 9.093956313063687
S 651.0272905584789 500.2428960927489 651.0272905584789 468.58245559541604
s 7.746703525943141 -9.093956313063687 16.84065983900683 -9.093956313063687
S 684.7086102364924 436.9220150980832 684.7086102364924 468.58245559541604
z" fill="none" stroke="none"></path>
<circle cx="0" cy="0" r="2.8397792546957956" fill="#9f66d3">
  <animateMotion begin="-5.904739101159406s" dur="10s" repeatCount="indefinite">
    <mpath xlink:href="#path80"></mpath>
  </animateMotion>
</circle><path id="path81" d="M 961.1718456752775 430.00737625151123
c 0 32.21095975881119 -7.881405047368696 9.252084186041513 -17.13348923341021 9.252084186041513
S 926.9048672084572 462.21833601032245 926.9048672084572 430.00737625151123
s 7.881405047368696 -9.252084186041513 17.13348923341021 -9.252084186041513
S 961.1718456752775 397.7964164927 961.1718456752775 430.00737625151123
z" fill="none" stroke="none"></path>
<circle cx="0" cy="0" r="3.2902627741948227" fill="#9f66d3">
  <animateMotion begin="-9.482577980051815s" dur="10s" repeatCount="indefinite">
    <mpath xlink:href="#path81"></mpath>
  </animateMotion>
</circle><path id="path82" d="M 1132.510787240384 57.3273381633685
c 0 20.099191595572417 -4.917887305299634 5.7731720540473965 -10.69105935934703 5.7731720540473965
S 1111.1286685216899 77.42652975894092 1111.1286685216899 57.3273381633685
s 4.917887305299634 -5.7731720540473965 10.69105935934703 -5.7731720540473965
S 1132.510787240384 37.22814656779609 1132.510787240384 57.3273381633685
z" fill="none" stroke="none"></path>
<circle cx="0" cy="0" r="2.7598996010646673" fill="#3494de">
  <animateMotion begin="-2.6681035772249317s" dur="10s" repeatCount="indefinite">
    <mpath xlink:href="#path82"></mpath>
  </animateMotion>
</circle><path id="path83" d="M 596.5634672446939 385.4715637856594
c 0 31.190074703756842 -7.631614023259653 8.958851244696115 -16.590465267955768 8.958851244696115
S 563.3825367087824 416.66163848941625 563.3825367087824 385.4715637856594
s 7.631614023259653 -8.958851244696115 16.590465267955768 -8.958851244696115
S 596.5634672446939 354.2814890819025 596.5634672446939 385.4715637856594
z" fill="none" stroke="none"></path>
<circle cx="0" cy="0" r="2.18402714342642" fill="#d2a1ff">
  <animateMotion begin="-9.67565419636432s" dur="10s" repeatCount="indefinite">
    <mpath xlink:href="#path83"></mpath>
  </animateMotion>
</circle><path id="path84" d="M 379.6533513689108 210.22800650732455
c 0 21.75500803920706 -5.323033881933641 6.248778904878624 -11.571812786812266 6.248778904878624
S 356.50972579528633 231.98301454653162 356.50972579528633 210.22800650732455
s 5.323033881933641 -6.248778904878624 11.571812786812266 -6.248778904878624
S 379.6533513689108 188.47299846811748 379.6533513689108 210.22800650732455
z" fill="none" stroke="none"></path>
<circle cx="0" cy="0" r="2.112949861533171" fill="#9f66d3">
  <animateMotion begin="-3.630011444671195s" dur="10s" repeatCount="indefinite">
    <mpath xlink:href="#path84"></mpath>
  </animateMotion>
</circle><path id="path85" d="M 1226.2456048016563 370.5046980813951
c 0 23.00708139457781 -5.629392256120102 6.6084169963149035 -12.237809252435007 6.6084169963149035
S 1201.7699862967863 393.5117794759729 1201.7699862967863 370.5046980813951
s 5.629392256120102 -6.6084169963149035 12.237809252435007 -6.6084169963149035
S 1226.2456048016563 347.49761668681725 1226.2456048016563 370.5046980813951
z" fill="none" stroke="none"></path>
<circle cx="0" cy="0" r="3.904654874100732" fill="#b784e7">
  <animateMotion begin="-2.0468226470879247s" dur="10s" repeatCount="indefinite">
    <mpath xlink:href="#path85"></mpath>
  </animateMotion>
</circle><path id="path86" d="M 555.4440332505329 306.88654317299563
c 0 19.529262152866586 -4.778436484212037 5.609468916248914 -10.387905400460951 5.609468916248914
S 534.6682224496111 326.4158053258622 534.6682224496111 306.88654317299563
s 4.778436484212037 -5.609468916248914 10.387905400460951 -5.609468916248914
S 555.4440332505329 287.35728102012905 555.4440332505329 306.88654317299563
z" fill="none" stroke="none"></path>
<circle cx="0" cy="0" r="3.8568720039699396" fill="#9f66d3">
  <animateMotion begin="-5.793238356178303s" dur="10s" repeatCount="indefinite">
    <mpath xlink:href="#path86"></mpath>
  </animateMotion>
</circle><path id="path87" d="M 799.6012683019729 172.04372152440772
c 0 27.279699194955178 -6.674820015786905 7.835658279402019 -14.510478295188925 7.835658279402019
S 770.5803117115951 199.3234207193629 770.5803117115951 172.04372152440772
s 6.674820015786905 -7.835658279402019 14.510478295188925 -7.835658279402019
S 799.6012683019729 144.76402232945253 799.6012683019729 172.04372152440772
z" fill="none" stroke="none"></path>
<circle cx="0" cy="0" r="2.684749455748533" fill="#9f66d3">
  <animateMotion begin="-1.382821750214731s" dur="10s" repeatCount="indefinite">
    <mpath xlink:href="#path87"></mpath>
  </animateMotion>
</circle><path id="path88" d="M 143.085231261506 153.6074592717961
c 0 26.173834228981214 -6.4042360347507215 7.5180162147073695 -13.922252249458092 7.5180162147073695
S 115.24072676258982 179.7812935007773 115.24072676258982 153.6074592717961
s 6.4042360347507215 -7.5180162147073695 13.922252249458092 -7.5180162147073695
S 143.085231261506 127.4336250428149 143.085231261506 153.6074592717961
z" fill="none" stroke="none"></path>
<circle cx="0" cy="0" r="2.4050554026801487" fill="#3494de">
  <animateMotion begin="-0.9352460424719444s" dur="10s" repeatCount="indefinite">
    <mpath xlink:href="#path88"></mpath>
  </animateMotion>
</circle><path id="path89" d="M 513.6965280074954 43.274356555188156
c 0 20.615912182103003 -5.044318938174138 5.921591796987032 -10.96591073516117 5.921591796987032
S 491.76470653717314 63.89026873729116 491.76470653717314 43.274356555188156
s 5.044318938174138 -5.921591796987032 10.96591073516117 -5.921591796987032
S 513.6965280074954 22.658444373085153 513.6965280074954 43.274356555188156
z" fill="none" stroke="none"></path>
<circle cx="0" cy="0" r="3.9000530951982415" fill="#3494de">
  <animateMotion begin="-3.56392870391516s" dur="10s" repeatCount="indefinite">
    <mpath xlink:href="#path89"></mpath>
  </animateMotion>
</circle><path id="path90" d="M 1107.378352662845 519.4395700090943
c 0 24.601301128998404 -6.019467297520885 7.066331175350605 -13.08579847287149 7.066331175350605
S 1081.2067557171017 544.0408711380927 1081.2067557171017 519.4395700090943
s 6.019467297520885 -7.066331175350605 13.08579847287149 -7.066331175350605
S 1107.378352662845 494.8382688800959 1107.378352662845 519.4395700090943
z" fill="none" stroke="none"></path>
<circle cx="0" cy="0" r="2.6471623620079416" fill="#9f66d3">
  <animateMotion begin="-2.3108925423089266s" dur="10s" repeatCount="indefinite">
    <mpath xlink:href="#path90"></mpath>
  </animateMotion>
</circle><path id="path91" d="M 348.8965175677118 484.56022202333503
c 0 21.24629782705301 -5.198562234278928 6.102660014153525 -11.301222248432452 6.102660014153525
S 326.2940730708469 505.80651985038804 326.2940730708469 484.56022202333503
s 5.198562234278928 -6.102660014153525 11.301222248432452 -6.102660014153525
S 348.8965175677118 463.313924196282 348.8965175677118 484.56022202333503
z" fill="none" stroke="none"></path>
<circle cx="0" cy="0" r="3.042547909995578" fill="#b784e7">
  <animateMotion begin="-0.37029616845857705s" dur="10s" repeatCount="indefinite">
    <mpath xlink:href="#path91"></mpath>
  </animateMotion>
</circle><path id="path92" d="M 620.7000352147451 607.9297087302335
c 0 31.66643054358287 -7.74816917555751 9.095676858263165 -16.843846033820675 9.095676858263165
S 587.0123431471037 639.5961392738164 587.0123431471037 607.9297087302335
s 7.74816917555751 -9.095676858263165 16.843846033820675 -9.095676858263165
S 620.7000352147451 576.2632781866506 620.7000352147451 607.9297087302335
z" fill="none" stroke="none"></path>
<circle cx="0" cy="0" r="2.6019513778226484" fill="#b784e7">
  <animateMotion begin="-9.397425034712295s" dur="10s" repeatCount="indefinite">
    <mpath xlink:href="#path92"></mpath>
  </animateMotion>
</circle><path id="path93" d="M 404.3870230028949 555.4342197126117
c 0 30.55956506614061 -7.477340388523765 8.777747412614856 -16.25508780113862 8.777747412614856
S 371.87684740061763 585.9937847787523 371.87684740061763 555.4342197126117
s 7.477340388523765 -8.777747412614856 16.25508780113862 -8.777747412614856
S 404.3870230028949 524.8746546464711 404.3870230028949 555.4342197126117
z" fill="none" stroke="none"></path>
<circle cx="0" cy="0" r="2.470612738381211" fill="#b784e7">
  <animateMotion begin="-7.540996585910595s" dur="10s" repeatCount="indefinite">
    <mpath xlink:href="#path93"></mpath>
  </animateMotion>
</circle><path id="path94" d="M 397.9026410317809 354.0072233849873
c 0 28.57648022147705 -6.9921175009997025 8.208137935956174 -15.200255436955876 8.208137935956174
S 367.5021301578691 382.5837036064643 367.5021301578691 354.0072233849873
s 6.9921175009997025 -8.208137935956174 15.200255436955876 -8.208137935956174
S 397.9026410317809 325.4307431635103 397.9026410317809 354.0072233849873
z" fill="none" stroke="none"></path>
<circle cx="0" cy="0" r="2.282734649043682" fill="#3494de">
  <animateMotion begin="-0.5226419669898963s" dur="10s" repeatCount="indefinite">
    <mpath xlink:href="#path94"></mpath>
  </animateMotion>
</circle><path id="path95" d="M 161.52899648265074 79.99642506158625
c 0 24.151845534337987 -5.909494120103974 6.9372322279481455 -12.846726348052119 6.9372322279481455
S 135.83554378654648 104.14827059592423 135.83554378654648 79.99642506158625
s 5.909494120103974 -6.9372322279481455 12.846726348052119 -6.9372322279481455
S 161.52899648265074 55.844579527248264 161.52899648265074 79.99642506158625
z" fill="none" stroke="none"></path>
<circle cx="0" cy="0" r="3.209963791194562" fill="#b784e7">
  <animateMotion begin="-8.80503642277522s" dur="10s" repeatCount="indefinite">
    <mpath xlink:href="#path95"></mpath>
  </animateMotion>
</circle><path id="path96" d="M 1145.7428294675299 458.4701386617525
c 0 30.01304383738944 -7.343617109148479 8.62076791073952 -15.964385019887999 8.62076791073952
S 1113.814059427754 488.48318249914195 1113.814059427754 458.4701386617525
s 7.343617109148479 -8.62076791073952 15.964385019887999 -8.62076791073952
S 1145.7428294675299 428.4570948243631 1145.7428294675299 458.4701386617525
z" fill="none" stroke="none"></path>
<circle cx="0" cy="0" r="2.867826620331264" fill="#d2a1ff">
  <animateMotion begin="-9.683867244359224s" dur="10s" repeatCount="indefinite">
    <mpath xlink:href="#path96"></mpath>
  </animateMotion>
</circle><path id="path97" d="M 1236.1861954635824 118.10706932352149
c 0 20.89993746142758 -5.1138144852429175 6.003173526154731 -11.116988011397648 6.003173526154731
S 1213.9522194407873 139.00700678494906 1213.9522194407873 118.10706932352149
s 5.1138144852429175 -6.003173526154731 11.116988011397648 -6.003173526154731
S 1236.1861954635824 97.2071318620939 1236.1861954635824 118.10706932352149
z" fill="none" stroke="none"></path>
<circle cx="0" cy="0" r="2.9870067273178065" fill="#b784e7">
  <animateMotion begin="-0.6025955406612216s" dur="10s" repeatCount="indefinite">
    <mpath xlink:href="#path97"></mpath>
  </animateMotion>
</circle><path id="path98" d="M 709.9338210846859 21.300697574335352
c 0 27.252898019779312 -6.6682622814353625 7.827960069511079 -14.496222350946441 7.827960069511079
S 680.9413763827929 48.55359559411467 680.9413763827929 21.300697574335352
s 6.6682622814353625 -7.827960069511079 14.496222350946441 -7.827960069511079
S 709.9338210846859 -5.95220044544396 709.9338210846859 21.300697574335352
z" fill="none" stroke="none"></path>
<circle cx="0" cy="0" r="2.4002757748966306" fill="#9f66d3">
  <animateMotion begin="-8.468827443847164s" dur="10s" repeatCount="indefinite">
    <mpath xlink:href="#path98"></mpath>
  </animateMotion>
</circle><path id="path99" d="M 537.273829123762 109.4881441663781
c 0 25.158307166239414 -6.155756008760707 7.226322271153875 -13.382078279914582 7.226322271153875
S 510.5096725639328 134.64645133261752 510.5096725639328 109.4881441663781
s 6.155756008760707 -7.226322271153875 13.382078279914582 -7.226322271153875
S 537.273829123762 84.3298370001387 537.273829123762 109.4881441663781
z" fill="none" stroke="none"></path>
<circle cx="0" cy="0" r="2.2052265248980603" fill="#b784e7">
  <animateMotion begin="-7.583062110731085s" dur="10s" repeatCount="indefinite">
    <mpath xlink:href="#path99"></mpath>
  </animateMotion>
</circle></g>
</svg>