<svg id="Layer_1" data-name="Layer 1" xmlns="http://www.w3.org/2000/svg" viewBox="0 0 120 120"><defs><style>.cls-1{fill:#a8d2f0;}.cls-2{fill:#231f20;}</style></defs><path class="cls-1" d="M2.12,42s.3,1.62,1.14,1.71,18.75,0,18.75,0l26.78,56.38,1.11.44L44.56,85.32,23.73,41.91Z"/><path class="cls-1" d="M92,56.14H59.53a.81.81,0,0,1-.84-.77V19.21a.75.75,0,0,1,.3-.59l8.93-6.79a.86.86,0,0,1,.54-.18H92a.81.81,0,0,1,.84.77V55.37A.81.81,0,0,1,92,56.14ZM60.37,54.6H91.15V13.18H68.76l-8.39,6.39Z"/><path class="cls-1" d="M95.57,59.36H63.1a.81.81,0,0,1-.84-.77V55.37a.81.81,0,0,1,.84-.77H91.15v-39a.81.81,0,0,1,.84-.77h3.58a.81.81,0,0,1,.84.77v43A.81.81,0,0,1,95.57,59.36ZM63.94,57.83H94.73V16.41h-1.9v39a.81.81,0,0,1-.84.77h-28Z"/><path class="cls-1" d="M68.46,20H59.53a.83.83,0,0,1-.79-.51.73.73,0,0,1,.25-.85l8.93-6.79a.92.92,0,0,1,.89-.11.77.77,0,0,1,.49.7v6.79A.81.81,0,0,1,68.46,20Zm-6.61-1.54h5.77V14.06Z"/><path class="cls-1" d="M87.57,49.83H65.67a.81.81,0,0,1-.84-.77v-11a.84.84,0,0,1,1.68,0V48.29H87.57a.77.77,0,1,1,0,1.54Z"/><path class="cls-1" d="M67.79,49.83a.89.89,0,0,1-.5-.15.72.72,0,0,1-.18-1.07l2-2.54a.87.87,0,0,1,.68-.32h1.37V43.1a.81.81,0,0,1,.84-.77h2.82l1.77-1.61V38.89a.81.81,0,0,1,.84-.77h7a.77.77,0,1,1,0,1.54H78.28V41a.72.72,0,0,1-.25.54l-2.25,2.06a.93.93,0,0,1-.6.23H72.85v2.65a.8.8,0,0,1-.84.76H70.23l-1.76,2.23A.87.87,0,0,1,67.79,49.83Z"/><path class="cls-1" d="M77.53,49.83a.81.81,0,0,1-.84-.77V44.94a.84.84,0,0,1,1.68,0v4.12A.81.81,0,0,1,77.53,49.83Z"/><path class="cls-1" d="M85,49.83a.81.81,0,0,1-.84-.77V42.27a.84.84,0,0,1,1.68,0v6.79A.81.81,0,0,1,85,49.83Z"/><path class="cls-1" d="M71.81,33.29a2.54,2.54,0,0,1-1.71-.66c-.42-.37-.74-.3-1.77.14s-2.32,1-3.64-.14a.72.72,0,0,1,0-1.08.9.9,0,0,1,1.19,0c.43.36.74.3,1.77-.14s2.33-1,3.65.14c.42.37.74.3,1.77-.14s2.32-1,3.64.14c.43.37.74.3,1.77-.14s2.32-1,3.64.14c.43.37.75.3,1.78-.14s2.32-1,3.64.14a.71.71,0,0,1,0,1.08.89.89,0,0,1-1.18,0c-.43-.36-.75-.3-1.78.14s-2.32,1-3.64-.14c-.43-.37-.74-.3-1.77.14s-2.32,1-3.64-.14c-.43-.37-.75-.3-1.78.14A4.85,4.85,0,0,1,71.81,33.29Z"/><path class="cls-1" d="M71.81,29.87a2.54,2.54,0,0,1-1.71-.66c-.42-.37-.74-.3-1.77.14s-2.32,1-3.64-.14a.72.72,0,0,1,0-1.08.9.9,0,0,1,1.19,0c.43.36.74.3,1.77-.14s2.33-1,3.65.14c.42.37.74.3,1.77-.14s2.32-1,3.64.14c.43.37.74.3,1.77-.14s2.32-1,3.64.14c.43.37.75.3,1.78-.14s2.32-1,3.64.14a.71.71,0,0,1,0,1.08.89.89,0,0,1-1.18,0c-.43-.36-.75-.3-1.78.14s-2.32,1-3.64-.14c-.43-.37-.74-.3-1.77.14s-2.32,1-3.64-.14c-.43-.37-.75-.3-1.78.14A4.85,4.85,0,0,1,71.81,29.87Z"/><path class="cls-1" d="M71.81,26.45a2.54,2.54,0,0,1-1.71-.66c-.42-.37-.74-.3-1.77.14s-2.32,1-3.64-.14a.72.72,0,0,1,0-1.08.9.9,0,0,1,1.19,0c.43.36.74.3,1.77-.14s2.33-1,3.65.14c.42.37.74.3,1.77-.14s2.32-1,3.64.14c.43.37.74.3,1.77-.14s2.32-1,3.64.14c.43.37.75.3,1.78-.14s2.32-1,3.64.14a.71.71,0,0,1,0,1.08.89.89,0,0,1-1.18,0c-.43-.36-.75-.3-1.78.14s-2.32,1-3.64-.14c-.43-.37-.74-.3-1.77.14s-2.32,1-3.64-.14c-.43-.37-.75-.3-1.78.14A4.85,4.85,0,0,1,71.81,26.45Z"/><path class="cls-1" d="M86.92,22.13H70.76a.77.77,0,1,1,0-1.54H86.08V16.78h-14a.77.77,0,1,1,0-1.54H86.92a.81.81,0,0,1,.84.77v5.35A.81.81,0,0,1,86.92,22.13Z"/><path class="cls-1" d="M87.79,106.73s5.6-.35,6.26,4.06,2.3,1.37,2.3,1.37l.09-2.53s-.93-3-1.81-3.71a3.11,3.11,0,0,0-2.34-1c-1.24,0-3.57-.44-3.84-.13A9.62,9.62,0,0,0,87.79,106.73Z"/><path class="cls-1" d="M47.92,106.73s5.61-.35,6.27,4.06,2.29,1.37,2.29,1.37l.09-2.53s-.93-3-1.81-3.71a3.09,3.09,0,0,0-2.34-1c-1.23,0-3.57-.44-3.84-.13A9.62,9.62,0,0,0,47.92,106.73Z"/><path class="cls-1" d="M83.64,76.91h18a7.81,7.81,0,0,1-2.82,5.29c-2.74,2.29-3.63,3.09-3.63,3.09s3.19-.09,3.63-.44,4.23-4.59,4.59-5.65,1.06-3.55,1.06-3.55a.94.94,0,0,0-1.33-1c-1.41.41-9.88.58-9.88.58l-6.88-.65-2.74,1.07Z"/><polygon class="cls-1" points="83.64 48.23 112.86 48.23 114 51.5 110.2 59.97 107.03 59.97 111.44 51.76 109.94 49.82 84.08 49.82 83.64 48.23"/><polygon class="cls-1" points="83.64 62.44 108.28 62.44 109.23 65.7 106.03 74.17 103.35 74.17 107.08 65.97 105.81 64.03 84.01 64.03 83.64 62.44"/><polygon class="cls-1" points="61.14 49.73 79.76 49.73 79.76 59.97 82.14 59.97 82.61 48.23 60.73 48.23 61.14 49.73"/><polygon class="cls-1" points="61.14 63.94 79.76 63.94 79.76 74.17 82.14 74.17 82.61 62.44 60.73 62.44 61.14 63.94"/><polygon class="cls-1" points="35.99 63.94 57.09 63.94 57.09 74.17 59.78 74.17 60.32 62.44 35.52 62.44 35.99 63.94"/><polygon class="cls-1" points="61.14 77.15 79.76 77.15 79.76 87.39 82.14 87.39 82.61 75.65 60.73 75.65 61.14 77.15"/><polygon class="cls-1" points="38.85 77.15 57.47 77.15 57.47 87.39 59.85 87.39 60.32 75.65 38.44 75.65 38.85 77.15"/><path class="cls-1" d="M36.6,48.72,38,50l19,.47v10h2.23l.71-11.58s-.35-2.31-2.47-2.31H40.08Z"/><path class="cls-2" d="M97.89,100.16h-48L22.61,42.77H3.87a1.75,1.75,0,1,1,0-3.5H25.05l27.28,57.4H97.89a1.75,1.75,0,1,1,0,3.49Z"/><path class="cls-2" d="M94.23,88.2H45.43a1.75,1.75,0,1,1,0-3.5h48.8a7.86,7.86,0,0,0,7.36-4.8L113,51a1.45,1.45,0,0,0-.21-1.43,1.66,1.66,0,0,0-1.37-.67h-74a1.75,1.75,0,1,1,0-3.5h74a5.54,5.54,0,0,1,4.44,2.16,4.79,4.79,0,0,1,.65,4.64L105.11,81.1A11.62,11.62,0,0,1,94.23,88.2Z"/><path class="cls-2" d="M111,62.91H33.41a1.75,1.75,0,1,1,0-3.5H111a1.75,1.75,0,1,1,0,3.5Z"/><path class="cls-2" d="M105.57,76.4H39.82a1.75,1.75,0,1,1,0-3.5h65.75a1.75,1.75,0,1,1,0,3.5Z"/><path class="cls-2" d="M59.85,88.2A1.81,1.81,0,0,1,58,86.45V47.14a1.87,1.87,0,0,1,3.74,0V86.45A1.81,1.81,0,0,1,59.85,88.2Z"/><path class="cls-2" d="M82.61,88.2a1.81,1.81,0,0,1-1.87-1.75V47.14a1.88,1.88,0,0,1,3.75,0V86.45A1.82,1.82,0,0,1,82.61,88.2Z"/><path class="cls-2" d="M50.88,116.84a7.23,7.23,0,1,1,7.72-7.21A7.49,7.49,0,0,1,50.88,116.84Zm0-10.92a3.72,3.72,0,1,0,4,3.71A3.85,3.85,0,0,0,50.88,105.92Z"/><path class="cls-2" d="M91.21,116.84a7.23,7.23,0,1,1,7.72-7.21A7.48,7.48,0,0,1,91.21,116.84Zm0-10.92a3.72,3.72,0,1,0,4,3.71A3.86,3.86,0,0,0,91.21,105.92Z"/></svg>