<svg id="Layer_1" data-name="Layer 1" xmlns="http://www.w3.org/2000/svg" viewBox="0 0 120 120"><defs><style>.cls-1{fill:#a8d2f0;}.cls-2{fill:#231f20;}</style></defs><rect class="cls-1" x="106.91" y="38.66" width="7.6" height="5.68"/><polygon class="cls-1" points="116.39 104.09 110.71 110.12 110.71 50.06 116.39 50.06 116.39 104.09"/><path class="cls-1" d="M60.41,35.36s3.68-1.94,6.41-.46l2.74,1.48s3.07-2.67,4.21-2.33,3.41,1.31,2.62,3.3-9,8.25-9,8.25.66,1.83,1.33,2,3.62-.94,3.62-.94l8.09-8.48-1.08-5.63s-3.65-2.11-4.61-2.05-4.27.11-4.62.63-1.7.47-1.7.47a9.68,9.68,0,0,0-2.11-1.1c-.51-.06-3-.29-3.76.23s-2.9,2.33-2.9,2.33-1,.63-.51,1.31A2.83,2.83,0,0,0,60.41,35.36Z"/><path class="cls-1" d="M17.93,13.73H68a2.83,2.83,0,0,1,2.39,2.62,23.06,23.06,0,0,1,0,3.24l5.69-.4-.92-7.28L69.56,6.56,53.31,6l-38,1V9.63Z"/><path class="cls-1" d="M40.44,25.25H87s4.1.43,4.1,4.1v78.86s.17,3.42,7.57,4.33-.89-2.91-.89-2.91l-.59-29.76.59-54.62-4.91-5.37-53.16-.69L37.4,20.67Z"/><path class="cls-2" d="M75.4,21.41a1.75,1.75,0,0,1-1.75-1.75V13.73a4.89,4.89,0,0,0-4.88-4.88h-58a1.75,1.75,0,0,1,0-3.5h58a8.39,8.39,0,0,1,8.38,8.38v5.93A1.75,1.75,0,0,1,75.4,21.41Z"/><path class="cls-2" d="M39.6,71.73H21.7a1.76,1.76,0,0,1,0-3.51H39.6a1.76,1.76,0,0,1,0,3.51Z"/><path class="cls-2" d="M104.57,115.23H46.24a8.39,8.39,0,0,1-8.39-8.38V26.67a5.15,5.15,0,0,0-4.62-5.25h-.31a4.88,4.88,0,0,0-4.83,4.88V65.34a6.39,6.39,0,1,1-12.77,0V22.12H10.43a8.39,8.39,0,1,1,.45-16.76,8.59,8.59,0,0,1,7.94,8.75V65.34a2.88,2.88,0,0,0,5.76,0V26.29a8.38,8.38,0,0,1,8.51-8.38H91.3a8.4,8.4,0,0,1,8.39,8.38v80.56a4.89,4.89,0,0,0,4.88,4.88ZM39.68,21.41a9,9,0,0,1,1.67,5.26v80.18a4.89,4.89,0,0,0,4.89,4.88H97.75a8.33,8.33,0,0,1-1.57-4.88V26.29a4.89,4.89,0,0,0-4.88-4.88ZM10.43,8.85a4.9,4.9,0,0,0-4.88,4.88,4.89,4.89,0,0,0,4.88,4.88h4.89v-4.5A5.15,5.15,0,0,0,10.7,8.86Z"/><path class="cls-2" d="M55.89,104.09l-4.63-4.63A1.75,1.75,0,0,1,53.74,97l2.15,2.15,5.94-5.93a1.75,1.75,0,0,1,2.48,2.47Z"/><path class="cls-2" d="M84.54,103.36H65.82a1.75,1.75,0,0,1,0-3.5H84.54a1.75,1.75,0,1,1,0,3.5Z"/><path class="cls-2" d="M55.89,87.4l-4.63-4.63a1.75,1.75,0,0,1,2.48-2.48l2.15,2.15,5.94-5.94A1.75,1.75,0,0,1,64.31,79Z"/><path class="cls-2" d="M84.54,86.67H65.82a1.75,1.75,0,0,1,0-3.5H84.54a1.75,1.75,0,1,1,0,3.5Z"/><path class="cls-2" d="M55.89,70l-4.63-4.63a1.75,1.75,0,0,1,2.48-2.48L55.89,65l5.94-5.94a1.75,1.75,0,0,1,2.48,2.48Z"/><path class="cls-2" d="M84.54,69.22H65.82a1.75,1.75,0,0,1,0-3.5H84.54a1.75,1.75,0,1,1,0,3.5Z"/><path class="cls-2" d="M69.42,52,59.26,41.87A8.06,8.06,0,0,1,69.42,29.46,8.06,8.06,0,0,1,79.57,41.87ZM65,31.62a4.55,4.55,0,0,0-3.22,7.77l7.68,7.68,7.68-7.68A4.55,4.55,0,0,0,70.66,33l-1.24,1.24L68.18,33A4.54,4.54,0,0,0,65,31.62Z"/><path class="cls-2" d="M110.89,117.33,104.59,105V40.28A4.33,4.33,0,0,1,108.92,36h4a4.33,4.33,0,0,1,4.33,4.33V105Zm-2.79-13.17,2.79,5.47,2.8-5.48V40.28a.81.81,0,0,0-.82-.82h-4a.81.81,0,0,0-.82.82Z"/><path class="cls-2" d="M115.45,51.13h-9.11a1.76,1.76,0,0,1,0-3.51h9.11a1.76,1.76,0,0,1,0,3.51Z"/></svg>